<?xml version="1.0" encoding="UTF-8"?>
<svg id="Capa_1" xmlns="http://www.w3.org/2000/svg" version="1.1" viewBox="0 0 1080 1080">
  <!-- Generator: Adobe Illustrator 29.7.1, SVG Export Plug-In . SVG Version: 2.1.1 Build 8)  -->
  <path d="M583.4,657.2h-68v84.4h30.8v-25.8h37c50.1,3.5,49.6-61.9.2-58.6ZM573.1,698.5h-27v-23.9c11,1.3,44.7-5.6,43.6,11.9,0,7.8-5.9,12-16.6,12Z" fill="#fff"/>
  <polygon points="659.4 657.2 628.7 657.2 628.7 741.6 710.7 741.6 710.7 719.1 659.4 719.1 659.4 657.2" fill="#fff"/>
  <path d="M754.8,657.2l-42.1,84.4h31.8l6.5-14.7h42.1l6.6,14.7h32l-41.2-84.4h-35.7ZM757.1,709.5l15.1-33.4h.2l14.9,33.4h-30.2Z" fill="#fff"/>
  <polygon points="920.3 657.2 920.3 712.2 920.1 712.2 874.7 657.2 837.7 657.2 837.7 741.6 866.7 741.6 866.7 685.8 866.8 685.8 912.4 741.6 949.3 741.6 949.3 657.2 920.3 657.2" fill="#fff"/>
  <path d="M221.2,657.5h-14.1c-1.8-.4-29.4,70.3-30.4,70.9l-29.5-70.3c.3-1.4-14.6-.3-15.1-.6-2.9-.2,0,83.1-1,84.2-.4,2.1,10,.6,10.8,1,.6,0,1-.5,1-1v-64.4c.9.6,26.8,65.8,28.6,65.4.6-.2,11.4.6,11.3-.6,0,0,27.6-64.9,27.6-64.9.9,1-1.8,65.8,1,65.5.9-.4,11.2,1,10.8-1-1-1.1,1.9-84.3-1-84.2Z" fill="#fff"/>
  <path d="M277.1,657.2c-59.2-2.4-59.3,91.4,0,89,59.5,2.4,59.4-91.4,0-89ZM277.1,737.5c-46.3,1.9-46.2-73.5,0-71.6,46.2-1.9,46.3,73.4,0,71.6Z" fill="#fff"/>
  <path d="M387.8,667c-.4-.9,1-10.1-1-9.8,0,0-65.4,0-65.4,0-2.1-.4-.6,8.9-1,9.8-1,2.2,27.4.5,27.8,1v73.4c-.4,2.1,10,.6,10.8,1,2.9.2,0-73.4,1-74.4.7-.5,28.7,1.2,27.8-1Z" fill="#fff"/>
  <path d="M503.4,665.5c-9.2-1.5-21.1.2-28.5,5.9,0,3.7,5,4,7.5,2.9,4.2-1,27.2-7.1,17.9,2.5-28.3,27.8-66.5,44.7-104.1,56.4-4.2,1.2-22,5.1-16-2,3.7-5.5,10.5-10.4,16.1-14.8,2.5-2,1.6-4,1.2-4.8-3.9-6.4-23.2,14.3-24.7,19.4-11.1,41.5,170.8-49.1,130.6-65.5Z" fill="#fff"/>
  <path d="M409.3,724.7c1.6.2,2.9-1.7,2-3.1-12.4-20.9-9.7-40.4,7.3-52,20.5-14,47.5-3.7,55.1,20.8,8.1,6.4,2.4-13.9-2.1-17.2-21.8-28.8-71.1-15.6-74.2,20.5-1.4,13.2,3.8,30.1,11.9,31Z" fill="#fff"/>
  <path d="M480.8,706.6c-1-.2-2,.4-2.4,1.4-9,30.9-30.6,37.7-56.3,28.1-2.2-.9-3.9,2.5-1.7,3.7,24.9,16.7,60.6-1,62-31,0-1-.6-2-1.6-2.2Z" fill="#fff"/>
  <g>
    <path d="M448.1,354.7c-7.6,18.4-13.3,40.4-16.3,64.4-8.8,70.2,9.8,130.3,41.5,134.2,21.6,2.7,43.8-21.5,58.4-59.4.6-1.7,1.3-3.4,1.9-5.1,7.7-17,26-26.2,42.9-20.7,17.2,5.6,26.7,24.6,22.1,43.2-1.3,3.5-2.6,6.9-4.1,10.3-29,67.8-90.2,107.6-143.1,90.3-57-18.7-82.6-96.9-57.1-174.6,11.3-34.5,30.7-63.1,53.8-82.6Z" fill="#fff"/>
    <path d="M635.7,547.8c7.6-18.4,13.3-40.4,16.3-64.4,8.8-70.2-9.8-130.3-41.5-134.2-21.6-2.7-43.8,21.5-58.4,59.4-.6,1.7-1.3,3.4-1.9,5.1-7.7,17-26,26.2-42.9,20.7-17.2-5.6-26.7-24.6-22.1-43.2,1.3-3.5,2.6-6.9,4.1-10.3,29-67.8,90.2-107.6,143.1-90.3,57,18.7,82.6,96.9,57.1,174.6-11.3,34.5-30.7,63.1-53.8,82.6Z" fill="#fff"/>
    <circle cx="595" cy="427.1" r="34.1" fill="#fff"/>
    <circle cx="482.3" cy="469.4" r="34.1" fill="#fff"/>
    <path d="M489.3,397.3s24.5-88.2,104.3-100c0,0-59.8,18.4-104.3,100Z" fill="#fff"/>
    <path d="M593.6,503.5s-24.5,88.2-104.3,100c0,0,59.8-18.4,104.3-100Z" fill="#fff"/>
    <path d="M645.8,389.4s23.8,35.8-10,158.5c0,0,48-81.8,10-158.5Z" fill="#fff"/>
    <path d="M635.9,300.8s74.9,30.4,52.7,135.7c0,0,7.2-79.1-52.7-135.7Z" fill="#fff"/>
    <path d="M448.3,602.4s-74.9-30.4-52.7-135.7c0,0-7.2,79.1,52.7,135.7Z" fill="#fff"/>
    <path d="M503.4,548.6s-40,34.7-64.3-19.1c0,0,16.5,64.1,64.3,19.1Z" fill="#fff"/>
    <path d="M448,354.7s-17.1,41.4-18.6,95.1c0,0-6.4-59.4,18.6-95.1Z" fill="#fff"/>
  </g>
  <g>
    <path d="M717.9,767.1h11.2l3.1,13.1h0l7.4-13.1h11.3l-3.5,21.9h-8l2-12.6h0s-7,12.6-7,12.6h-6.8l-3.2-12.6h0l-1.9,12.6h-8l3.5-21.9Z" fill="#fff"/>
    <path d="M751.2,780c0-8.2,7.2-13.6,15.9-13.6s12.6,3.8,12.6,9.7-7.2,13.6-15.9,13.6-12.6-3.8-12.6-9.7ZM770.8,777c0-2.5-1.7-4-4.6-4s-6,2.7-6,6,1.7,4,4.6,4,6-2.7,6-6Z" fill="#fff"/>
    <path d="M787.5,773.8h-6.5l1.1-6.7h21.7l-1.1,6.7h-6.5l-2.4,15.2h-8.8l2.4-15.2Z" fill="#fff"/>
    <path d="M802.8,780c0-8.2,7.2-13.6,15.9-13.6s12.6,3.8,12.6,9.7-7.2,13.6-15.9,13.6-12.6-3.8-12.6-9.7ZM822.4,777c0-2.5-1.7-4-4.6-4s-6,2.7-6,6,1.7,4,4.6,4,6-2.7,6-6Z" fill="#fff"/>
    <path d="M845.9,785.4l-.5-1.9c-.4-1-1.2-1.5-2.3-1.5h-1.7l-1.1,7h-8.8l3.5-21.9h14.5c5.4,0,8.5,2.2,8.5,6.2s-2.1,6.1-6,7.1h0c.8.3,1.2.9,1.4,1.9l.6,1.6c.2.5.6.9,1.3.9s1-.2,1.3-.4l.5,3.6c-1.4.9-3.9,1.6-5.9,1.6-3.2,0-4.8-1.9-5.4-4.2ZM846,777c2,0,3.1-.9,3.1-2.6s-.9-1.8-2.4-1.8h-3.8l-.7,4.4h3.8Z" fill="#fff"/>
    <path d="M858.1,784.5l5.5-3.3c1.3,1.6,4,2.7,6.8,2.7s3.2-.5,3.2-1.3-.9-1.2-2.6-1.4l-3.2-.4c-5.5-.8-7.8-2.6-7.8-6.1,0-5.7,5.5-8.2,11.9-8.2s9.1,1.8,10.5,4.5l-5.1,3.2c-1.1-1.2-3.2-2.1-5.4-2.1s-3.4.4-3.4,1.2,1,1,2.7,1.3l2.9.4c5.6.8,8,2.8,8,6.4,0,5.4-6,8.3-12.5,8.3s-10-1.9-11.6-5.1Z" fill="#fff"/>
    <path d="M889.3,779.6c0-7.6,6.7-13.1,14.5-13.1s11.3,3.3,11.5,8.5l-8.2,1.5c-.2-2.1-1.5-3.3-3.7-3.3s-5.3,2.7-5.3,5.8,1.8,3.8,4.6,3.8,4.9-1.4,5.6-3.8l7.9,1.1c-1.7,5.6-7.6,9.4-14.2,9.4s-12.7-3.8-12.7-10Z" fill="#fff"/>
    <path d="M914.9,785.7c0-2.6,2.1-4,4.5-4s3.9,1.5,3.9,3.6-1.9,4-4.4,4-4-1.5-4-3.6Z" fill="#fff"/>
    <path d="M935.4,767.1h10.4l4.9,21.9h-9l-.5-3.4h-7.4l-1.7,3.4h-8.8l12-21.9ZM940.8,780.5l-1.2-7.5h0l-3.7,7.5h4.9Z" fill="#fff"/>
  </g>
  <g>
    <path d="M131.7,640.1l2.8-1c.1,1.8.9,2.8,2.1,2.8s1.7-.8,1.7-2.2v-11.5h3.2v11.7c0,2.9-1.8,4.6-4.8,4.6s-4.8-1.6-5.1-4.4Z" fill="#fff"/>
    <path d="M144.3,634.7h6.9v2.2h-6.9v-2.2Z" fill="#fff"/>
    <path d="M153.2,639.5l3.1-.7c0,1.9,1.1,3.1,2.6,3.1s2.4-1.1,2.4-3-1-3.2-2.5-3.2-1.5.4-1.9,1l-2.5-.5.5-8h8.3v2.5h-5.6l-.3,3.6c.5-.5,1.5-.8,2.5-.8,2.8,0,4.6,2.1,4.6,5.4s-2.3,5.6-5.7,5.6-5.6-2-5.7-5Z" fill="#fff"/>
    <path d="M166.8,636.2c0-5.2,2.5-8.4,6.3-8.4s6.3,3.2,6.3,8.4-2.5,8.4-6.3,8.4-6.3-3.2-6.3-8.4ZM176.4,636.2c0-3.5-1.2-5.7-3.2-5.7s-3.2,2.1-3.2,5.7,1.2,5.6,3.2,5.6,3.2-2.1,3.2-5.6Z" fill="#fff"/>
    <path d="M188.3,640.8h-6.8v-1.9l5.8-10.7h4v10.1h1.7v2.4h-1.7v3.3h-3.1v-3.3ZM188.3,638.4v-6.9h0l-3.7,6.9h3.7Z" fill="#fff"/>
    <path d="M195.4,636.2c0-5.2,2.5-8.4,6.3-8.4s6.3,3.2,6.3,8.4-2.5,8.4-6.3,8.4-6.3-3.2-6.3-8.4ZM204.9,636.2c0-3.5-1.2-5.7-3.2-5.7s-3.2,2.1-3.2,5.7,1.2,5.6,3.2,5.6,3.2-2.1,3.2-5.6Z" fill="#fff"/>
    <path d="M210.4,639.8c0-2.1,1.2-3.6,3.2-4.1-1.5-.5-2.5-1.9-2.5-3.6,0-2.6,1.9-4.3,5-4.3s5,1.6,5,4.3-1,3.1-2.5,3.6c2,.5,3.2,2,3.2,4.1s-2.2,4.7-5.7,4.7-5.7-1.8-5.7-4.7ZM218.6,639.5c0-1.5-1-2.5-2.5-2.5s-2.5,1-2.5,2.5,1,2.5,2.5,2.5,2.5-1,2.5-2.5ZM218.1,632.5c0-1.3-.8-2.2-1.9-2.2s-2,.8-2,2.2.8,2.3,2,2.3,1.9-.9,1.9-2.3Z" fill="#fff"/>
    <path d="M223.8,639.2l2.9-.4c.2,1.9,1.3,3.2,3.1,3.2s3.1-1.7,3.1-5.1c-.7.9-1.7,1.5-3.7,1.5s-4.7-2.1-4.7-5.2,2.2-5.5,5.7-5.5,5.8,2.5,5.8,7.3-1.6,9.4-6.3,9.4-5.5-2.1-5.9-5.3ZM232.8,633.4c0-1.8-1-2.9-2.5-2.9-1.5,0-2.5,1.2-2.5,2.9s.9,2.9,2.5,2.9,2.5-1.2,2.5-2.9Z" fill="#fff"/>
    <path d="M237.8,639.5l3.1-.7c0,1.9,1.1,3.1,2.6,3.1s2.4-1.1,2.4-3-1-3.2-2.5-3.2-1.5.4-1.9,1l-2.5-.5.5-8h8.3v2.5h-5.6l-.3,3.6c.5-.5,1.5-.8,2.5-.8,2.8,0,4.6,2.1,4.6,5.4s-2.3,5.6-5.7,5.6-5.6-2-5.7-5Z" fill="#fff"/>
    <path d="M250.9,639.2l2.9-.4c.2,1.9,1.3,3.2,3.1,3.2s3.1-1.7,3.1-5.1c-.7.9-1.7,1.5-3.7,1.5s-4.7-2.1-4.7-5.2,2.2-5.5,5.7-5.5,5.8,2.5,5.8,7.3-1.6,9.4-6.3,9.4-5.5-2.1-5.9-5.3ZM259.9,633.4c0-1.8-1-2.9-2.5-2.9-1.5,0-2.5,1.2-2.5,2.9s.9,2.9,2.5,2.9,2.5-1.2,2.5-2.9Z" fill="#fff"/>
    <path d="M265.7,634.7h6.9v2.2h-6.9v-2.2Z" fill="#fff"/>
    <path d="M274.6,641.5h3.3v-9.2h0c-.4.7-1.2,1.3-2.2,1.7l-1-2.7c1.7-.5,2.9-1.6,3.5-3h2.9v13.2h2.7v2.6h-9.2v-2.6Z" fill="#fff"/>
  </g>
  <g>
    <path d="M638.2,624.3c0,1.1-.3,1.9-1,2.6-.6.7-1.5,1-2.5,1s-1.9-.3-2.6-1c-.7-.7-1-1.5-1-2.6s.3-1.9,1-2.6c.7-.7,1.5-1,2.6-1s1.9.3,2.5,1c.6.7,1,1.5,1,2.6ZM638.3,636.5c0,.5,0,1.3,0,2.3,0,1,0,1.8,0,2.3s0,1.6,0,2.9c0,1.3,0,2.3,0,2.9s-.1.7-.3.7c-.3,0-.9,0-1.6,0-.7,0-1.2,0-1.6,0s-.9,0-1.6,0c-.7,0-1.2,0-1.6,0s-.4-.2-.4-.7,0-1.3,0-2.3c0-1,0-1.8,0-2.3,0-2.3.2-4.4.6-6.4.5-2,1-4.1,1.5-6.1,0-.5.6-.7,1.5-.7s.8,0,1.1,0c.3,0,.5.3.6.5,1.2,3.8,1.8,6.1,1.8,6.8Z" fill="#fff"/>
    <path d="M652.4,647.2c-1.7,0-2.6,0-2.9,0-.2,0-.4-.2-.6-.5-1.4-2.8-2.8-5.6-4.3-8.4-2.3-4.5-3.4-7.1-3.4-7.7,0-1,0-2.5.1-4.4,0-2,.1-3.5.1-4.4s.1-.7.4-.7c.7,0,1.9,0,3.4,0,1.5,0,2.7,0,3.4,0s.5.1.5.4c0,1,0,2.5-.2,4.6-.1,2-.2,3.5-.2,4.6s1.3,3.5,3.8,8.3c.7-1.2,1.5-2.7,2.3-4.5,1.2-2.4,1.8-3.9,1.8-4.4,0-.9,0-2.3,0-4.1,0-1.8,0-3.2,0-4.1s0-.5.2-.6h.6c.7,0,1.7,0,3.1-.1,1.4,0,2.4-.1,3.1-.1s.6.1.6.4c0,1,0,2.4,0,4.3,0,1.9,0,3.4,0,4.4s-1.2,3.6-3.7,8.5c-1,1.8-2.4,4.4-4.2,8-.1.3-.2.4-.3.5s-.2,0-.5,0c-.6,0-1.6,0-3,0Z" fill="#fff"/>
    <path d="M674.4,633.4c0,1.5,0,3.7.1,6.6,0,3,.1,5.2.1,6.6s0,.4-.2.5c0,0-.2,0-.5,0-.8,0-1.9.1-3.3.1s-3,0-3.5-.1c-.4,0-.5-.3-.5-.6,0,.2,0-.9.2-3.3.2-5,.3-8.4.3-9.9s0-3.3-.1-6c0-2.7-.1-4.7-.1-6s.1-.4.4-.4,1,0,1.7,0c.8,0,1.4,0,1.7,0s1,0,1.7,0c.8,0,1.3,0,1.7,0s.5.1.5.4c0,1.3,0,3.3-.2,6-.1,2.7-.2,4.7-.2,6Z" fill="#fff"/>
    <path d="M688.8,647.2c-1.7,0-2.6,0-2.9,0-.2,0-.4-.2-.6-.5-1.4-2.8-2.8-5.6-4.3-8.4-2.3-4.5-3.4-7.1-3.4-7.7,0-1,0-2.5.1-4.4,0-2,.1-3.5.1-4.4s.1-.7.4-.7c.7,0,1.9,0,3.4,0,1.5,0,2.7,0,3.4,0s.5.1.5.4c0,1,0,2.5-.2,4.6-.1,2-.2,3.5-.2,4.6s1.3,3.5,3.8,8.3c.7-1.2,1.5-2.7,2.3-4.5,1.2-2.4,1.8-3.9,1.8-4.4,0-.9,0-2.3,0-4.1,0-1.8,0-3.2,0-4.1s0-.5.2-.6h.6c.7,0,1.7,0,3.1-.1,1.4,0,2.4-.1,3.1-.1s.6.1.6.4c0,1,0,2.4,0,4.3,0,1.9,0,3.4,0,4.4s-1.2,3.6-3.7,8.5c-1,1.8-2.4,4.4-4.2,8-.1.3-.2.4-.3.5s-.2,0-.5,0c-.6,0-1.6,0-3,0Z" fill="#fff"/>
    <path d="M722.3,641.4c0,.5-.1,1.5-.3,3-.2,1.6-.4,2.5-.6,2.8-.1.2-.4.4-.6.4s-.3,0-.6,0c-.9-.1-3.6-.2-8-.2s-2.4,0-4.3,0-3.3,0-4.3,0-.6-.2-.6-.5c0-1.4,0-3.5.2-6.3.2-2.8.2-4.9.2-6.3s0-4.1-.2-7.9c0-1-.1-2.5-.2-4.5v-.3c0-.3.1-.4.4-.4.9,0,2.3,0,4.2,0,1.9,0,3.2,0,4.2,0s2.3,0,4.1,0c1.8,0,3.2,0,4.1,0s1,.2,1.1.7c0,.3.2,1.2.3,2.6.1,1.5.2,2.3.2,2.6s-.1.4-.4.4-.2,0-.4,0c-3.3-.3-6.3-.4-8.9-.4s-1.1.2-1.2.5c0,.1,0,.6,0,1.4s.1,1.4.4,1.7c.2.2.6.4,1.2.4s.4,0,.7,0c.4,0,.7,0,.9,0,1.6,0,3.2,0,4.8-.1.1,0,.5,0,1,0,.4,0,.8,0,1,0s.4.1.4.4c0-.3-.1.7-.3,2.9-.1,1-.2,2-.2,3s-.2.4-.5.4l-1.7-.2c-.7,0-2.3-.1-4.9-.1h-2c-.5,0-.8.1-.9.4,0,0,0,.4,0,1.2s0,1.6.2,1.8c.2.5,1,.8,2.4.8,0,0,.9,0,2.7,0s1.6,0,2.9-.2c1.3-.1,2.3-.2,2.9-.2s.4.2.4.7Z" fill="#fff"/>
    <path d="M752.6,626.7c0,.2-.1.4-.4.4-.5,0-2.3,0-5.6-.3,0,3.2-.1,5.4-.1,6.6s0,3.7.2,6.6c.1,3,.2,5.2.2,6.6s0,.4-.2.4c0,0-.2,0-.5,0-.7,0-1.8.1-3.3.1s-2.7,0-3.4-.1c-.3,0-.5-.3-.5-.6,0-1.5,0-3.7.2-6.6.1-2.9.2-5.1.2-6.6s0-3.1-.1-6.5c-2.5.2-4.5.4-6,.4s-.3,0-.3-.2,0-.6.3-1.4c.2-.9.3-1.4.3-1.6,0-.6,0-1.2.1-1.8,0-.9.2-1.4.4-1.4s.1,0,.3,0c2,.3,5,.4,9,.4s3.2-.1,6.2-.4c1.6-.1,2.4-.2,2.4-.2.2,0,.4,0,.4,0,0,0,0,.2,0,.4,0,.3,0,.8,0,1.4,0,.7,0,1.1,0,1.4s0,.8.1,1.4c0,.6.1,1.1.1,1.4Z" fill="#fff"/>
    <path d="M776.9,638c0,3.2-.4,5.3-1.1,6.5-1.4,2.1-4.9,3.2-10.4,3.2s-4.5-.2-5.8-.6c-2.2-.6-3.6-1.8-4.2-3.6-.3-.9-.5-2.4-.5-4.6s0-1.3,0-2.3c0-1,0-1.8,0-2.3,0-1.4,0-3.6-.2-6.5-.1-2.9-.2-5.1-.2-6.5s.1-.4.4-.4c.8,0,1.9,0,3.4,0s2.7,0,3.4,0,.5.1.5.4c0,1.6,0,4.1-.2,7.4-.1,3.3-.2,5.7-.2,7.4s.2,3.3.6,4c.5.9,1.7,1.4,3.4,1.4,2.6,0,3.8-1.2,3.8-3.7s0-4.5-.1-8.1c0-3.6-.1-6.3-.1-8.1s.2-.6.5-.6c.7,0,1.8,0,3.3,0,1.5,0,2.6,0,3.3,0s.5.1.5.4c0,1.4,0,3.6-.2,6.5-.1,2.9-.2,5.1-.2,6.5s0,1,0,1.8c0,.8,0,1.4,0,1.8Z" fill="#fff"/>
    <path d="M793.3,638.6c0,2.5-1.1,4.7-3.2,6.5-1.9,1.6-4.1,2.6-6.8,3-.1,0-.2,0-.2,0-.3,0-.9-.9-1.9-2.6s-1.5-2.8-1.5-3.2,0-.2.3-.3c1.8-.4,3-.8,3.6-1,1.3-.6,1.9-1.6,1.9-2.9s-.4-1.7-1.3-2.7c-1.5-1.7-2.3-2.6-2.4-2.8-.9-1.3-1.3-2.7-1.3-4.3,0-2.3,1.1-4.2,3.2-5.7,1.7-1.2,3.8-2.1,6.3-2.4.1,0,.2,0,.3,0,.2,0,.3.1.4.4.3.9,1.1,2.6,2.3,4.9,0,0,0,.1,0,.2,0,.2-.1.3-.3.3s-.3,0-.5,0c-.2,0-.4,0-.5,0-.9,0-1.7.2-2.4.6-.8.5-1.2,1.1-1.2,2s.4,1.7,1.3,2.8c1.6,2,2.4,3,2.5,3.1.9,1.4,1.3,2.7,1.3,4.1Z" fill="#fff"/>
    <path d="M818.8,638.6c0,2.5-1.1,4.7-3.2,6.5-1.9,1.6-4.1,2.6-6.8,3-.1,0-.2,0-.2,0-.3,0-.9-.9-1.9-2.6s-1.5-2.8-1.5-3.2,0-.2.3-.3c1.8-.4,3-.8,3.6-1,1.3-.6,1.9-1.6,1.9-2.9s-.4-1.7-1.3-2.7c-1.5-1.7-2.3-2.6-2.4-2.8-.9-1.3-1.3-2.7-1.3-4.3,0-2.3,1.1-4.2,3.2-5.7,1.7-1.2,3.8-2.1,6.3-2.4.1,0,.2,0,.3,0,.2,0,.3.1.4.4.3.9,1.1,2.6,2.3,4.9,0,0,0,.1,0,.2,0,.2-.1.3-.3.3s-.3,0-.5,0c-.2,0-.4,0-.5,0-.9,0-1.7.2-2.4.6-.8.5-1.2,1.1-1.2,2s.4,1.7,1.3,2.8c1.6,2,2.4,3,2.5,3.1.9,1.4,1.3,2.7,1.3,4.1Z" fill="#fff"/>
    <path d="M844.2,638c0,3.2-.4,5.3-1.1,6.5-1.4,2.1-4.9,3.2-10.4,3.2s-4.5-.2-5.8-.6c-2.2-.6-3.6-1.8-4.2-3.6-.3-.9-.5-2.4-.5-4.6s0-1.3,0-2.3c0-1,0-1.8,0-2.3,0-1.4,0-3.6-.2-6.5-.1-2.9-.2-5.1-.2-6.5s.1-.4.4-.4c.8,0,1.9,0,3.4,0s2.7,0,3.4,0,.5.1.5.4c0,1.6,0,4.1-.2,7.4-.1,3.3-.2,5.7-.2,7.4s.2,3.3.6,4c.5.9,1.7,1.4,3.4,1.4,2.6,0,3.8-1.2,3.8-3.7s0-4.5-.1-8.1c0-3.6-.1-6.3-.1-8.1s.2-.6.5-.6c.7,0,1.8,0,3.3,0,1.5,0,2.6,0,3.3,0s.5.1.5.4c0,1.4,0,3.6-.2,6.5-.1,2.9-.2,5.1-.2,6.5s0,1,0,1.8c0,.8,0,1.4,0,1.8Z" fill="#fff"/>
    <path d="M867,641.4c0,.5-.1,1.5-.3,3-.2,1.6-.4,2.5-.6,2.8-.1.2-.4.4-.6.4s-.3,0-.6,0c-.9-.1-3.6-.2-8-.2s-2.4,0-4.3,0-3.3,0-4.3,0-.6-.2-.6-.5c0-1.4,0-3.5.2-6.3.2-2.8.2-4.9.2-6.3s0-4.1-.2-7.9c0-1-.1-2.5-.2-4.5v-.3c0-.3.1-.4.4-.4.9,0,2.3,0,4.2,0,1.9,0,3.2,0,4.2,0s2.3,0,4.1,0c1.8,0,3.2,0,4.1,0s1,.2,1.1.7c0,.3.2,1.2.3,2.6.1,1.5.2,2.3.2,2.6s-.1.4-.4.4-.2,0-.4,0c-3.3-.3-6.3-.4-8.9-.4s-1.1.2-1.2.5c0,.1,0,.6,0,1.4s.1,1.4.4,1.7c.2.2.6.4,1.2.4s.4,0,.7,0c.4,0,.7,0,.9,0,1.6,0,3.2,0,4.8-.1.1,0,.5,0,1,0,.4,0,.8,0,1,0s.4.1.4.4c0-.3-.1.7-.3,2.9-.1,1-.2,2-.2,3s-.2.4-.5.4l-1.7-.2c-.7,0-2.3-.1-4.9-.1h-2c-.5,0-.8.1-.9.4,0,0,0,.4,0,1.2s0,1.6.2,1.8c.2.5,1,.8,2.4.8,0,0,.9,0,2.7,0s1.6,0,2.9-.2c1.3-.1,2.3-.2,2.9-.2s.4.2.4.7Z" fill="#fff"/>
    <path d="M894.5,621.5c0,1.4,0,3.6-.2,6.4s-.2,5-.2,6.4v12.3c0,.3-.2.5-.5.5s-.8,0-1.4,0c-.6,0-1.1,0-1.4,0s-.8,0-1.5,0c-.6,0-1.1,0-1.5,0s-.5-.2-.8-.6c-.9-1.2-2.9-3.9-6.1-8-.9-1.2-2.2-2.9-3.9-5.1,0,0-.1-.1-.3-.2,0,0-.1.2-.1.4,0,1.4,0,3.6.1,6.5,0,2.9.1,5.1.1,6.5s-.2.7-.5.7h-6.5c-.4,0-.5-.2-.5-.6,0-1.3,0-3.4.2-6.1s.2-4.8.2-6.1,0-3.6-.2-6.4-.2-5-.2-6.4.2-.4.7-.4c.7,0,1.6,0,2.7-.1.2,0,.7-.1,1.5-.2.6-.1,1.1-.2,1.5-.2s.4.2.7.6l7,9.6c.6.9,1.6,2.1,2.8,3.8.3.4.6.6.8.6s.2-.5.2-1.5,0-3.3-.2-5.9c-.1-2.6-.2-4.6-.2-5.9s.1-.7.4-.7c.7,0,1.9,0,3.4,0s2.6,0,3.4,0,.4.2.4.6ZM889.2,617.6c-1.6,1.8-3.2,2.7-5,2.7s-1.1-.3-1.8-.8c-.7-.5-1.3-.8-1.8-.8s-.9.2-1.4.6c-.5.4-.8.6-.9.6-.3-.1-.9-.5-1.6-1.2-.7-.7-1.1-1.2-1.1-1.5.1-.5.8-1.1,1.9-1.8,1.1-.7,2-1,2.6-1s1.2.2,2.1.7,1.5.7,2,.7.9-.2,1.5-.7c.6-.4,1-.7,1.2-.7s.6.4,1.3,1.3c.7.9,1,1.4,1,1.6h0Z" fill="#fff"/>
    <path d="M923.9,634.1c0,3.9-1.2,7.1-3.7,9.8-2.5,2.7-5.7,4-9.6,4s-7-1.3-9.6-4c-2.5-2.6-3.7-5.9-3.7-9.7s1.2-7.1,3.7-9.8c2.5-2.7,5.7-4.1,9.6-4.1s7,1.4,9.6,4.1c2.5,2.7,3.8,5.9,3.8,9.8ZM916.9,634c0-1.9-.6-3.5-1.7-4.8-1.2-1.4-2.7-2.1-4.5-2.1s-3.2.7-4.5,2.1c-1.2,1.4-1.8,2.9-1.8,4.7s.6,3.5,1.7,4.8c1.2,1.3,2.7,2,4.6,2s3.3-.7,4.5-2.1c1.2-1.3,1.8-2.9,1.8-4.7Z" fill="#fff"/>
    <path d="M939.5,638.6c0,2.5-1.1,4.7-3.2,6.5-1.9,1.6-4.1,2.6-6.8,3-.1,0-.2,0-.2,0-.3,0-.9-.9-1.9-2.6s-1.5-2.8-1.5-3.2,0-.2.3-.3c1.8-.4,3-.8,3.6-1,1.3-.6,1.9-1.6,1.9-2.9s-.4-1.7-1.3-2.7c-1.5-1.7-2.3-2.6-2.4-2.8-.9-1.3-1.3-2.7-1.3-4.3,0-2.3,1.1-4.2,3.2-5.7,1.7-1.2,3.8-2.1,6.3-2.4.1,0,.2,0,.3,0,.2,0,.3.1.4.4.3.9,1.1,2.6,2.3,4.9,0,0,0,.1,0,.2,0,.2-.1.3-.3.3s-.3,0-.5,0c-.2,0-.4,0-.5,0-.9,0-1.7.2-2.4.6-.8.5-1.2,1.1-1.2,2s.4,1.7,1.3,2.8c1.6,2,2.4,3,2.5,3.1.9,1.4,1.3,2.7,1.3,4.1Z" fill="#fff"/>
    <path d="M949.9,625.5c0,2.3-.2,4.4-.6,6.4-.5,2-1,4.1-1.5,6.1-.1.5-.6.7-1.5.7s-1.6-.2-1.7-.6c-1.2-4-1.8-6.3-1.8-6.8s0-1.3,0-2.3c0-1,0-1.8,0-2.3s0-1.4,0-2.5c0-1.1,0-2,0-2.5s.1-.7.3-.7c.3,0,.9,0,1.6,0,.7,0,1.2,0,1.6,0s.9,0,1.6,0c.7,0,1.2,0,1.6,0s.4,1.5.4,4.5ZM949.9,644c0,1-.3,1.9-1,2.6s-1.5,1-2.5,1-1.9-.3-2.6-1c-.6-.7-1-1.6-1-2.6s.3-1.9,1-2.6c.6-.7,1.5-1,2.5-1s1.9.3,2.5,1c.7.7,1,1.5,1,2.6Z" fill="#fff"/>
  </g>
  <metadata><?xpacket begin="﻿" id="W5M0MpCehiHzreSzNTczkc9d"?>
<x:xmpmeta xmlns:x="adobe:ns:meta/" x:xmptk="Adobe XMP Core 9.1-c003 1.000000, 0000/00/00-00:00:00        ">
   <rdf:RDF xmlns:rdf="http://www.w3.org/1999/02/22-rdf-syntax-ns#">
      <rdf:Description rdf:about=""
            xmlns:dc="http://purl.org/dc/elements/1.1/"
            xmlns:xmp="http://ns.adobe.com/xap/1.0/"
            xmlns:xmpGImg="http://ns.adobe.com/xap/1.0/g/img/"
            xmlns:xmpMM="http://ns.adobe.com/xap/1.0/mm/"
            xmlns:stRef="http://ns.adobe.com/xap/1.0/sType/ResourceRef#"
            xmlns:stEvt="http://ns.adobe.com/xap/1.0/sType/ResourceEvent#"
            xmlns:illustrator="http://ns.adobe.com/illustrator/1.0/"
            xmlns:pdf="http://ns.adobe.com/pdf/1.3/"
            xmlns:pdfx="http://ns.adobe.com/pdfx/1.3/"
            xmlns:xmpTPg="http://ns.adobe.com/xap/1.0/t/pg/"
            xmlns:stDim="http://ns.adobe.com/xap/1.0/sType/Dimensions#"
            xmlns:xmpG="http://ns.adobe.com/xap/1.0/g/">
         <dc:format>image/svg+xml</dc:format>
         <dc:title>
            <rdf:Alt>
               <rdf:li xml:lang="x-default">MOTO PLAN</rdf:li>
            </rdf:Alt>
         </dc:title>
         <xmp:CreatorTool>Adobe Illustrator 29.7 (Macintosh)</xmp:CreatorTool>
         <xmp:CreateDate>2025-08-14T10:59:45-05:00</xmp:CreateDate>
         <xmp:ModifyDate>2025-08-14T10:59:45-05:00</xmp:ModifyDate>
         <xmp:MetadataDate>2025-08-14T10:59:45-05:00</xmp:MetadataDate>
         <xmp:Thumbnails>
            <rdf:Alt>
               <rdf:li rdf:parseType="Resource">
                  <xmpGImg:width>256</xmpGImg:width>
                  <xmpGImg:height>64</xmpGImg:height>
                  <xmpGImg:format>JPEG</xmpGImg:format>
                  <xmpGImg:image>/9j/4AAQSkZJRgABAgEAAAAAAAD/7QAsUGhvdG9zaG9wIDMuMAA4QklNA+0AAAAAABAAAAAAAAEA&#xA;AQAAAAAAAQAB/+4ADkFkb2JlAGTAAAAAAf/bAIQABgQEBAUEBgUFBgkGBQYJCwgGBggLDAoKCwoK&#xA;DBAMDAwMDAwQDA4PEA8ODBMTFBQTExwbGxscHx8fHx8fHx8fHwEHBwcNDA0YEBAYGhURFRofHx8f&#xA;Hx8fHx8fHx8fHx8fHx8fHx8fHx8fHx8fHx8fHx8fHx8fHx8fHx8fHx8fHx8f/8AAEQgAQAEAAwER&#xA;AAIRAQMRAf/EAaIAAAAHAQEBAQEAAAAAAAAAAAQFAwIGAQAHCAkKCwEAAgIDAQEBAQEAAAAAAAAA&#xA;AQACAwQFBgcICQoLEAACAQMDAgQCBgcDBAIGAnMBAgMRBAAFIRIxQVEGE2EicYEUMpGhBxWxQiPB&#xA;UtHhMxZi8CRygvElQzRTkqKyY3PCNUQnk6OzNhdUZHTD0uIIJoMJChgZhJRFRqS0VtNVKBry4/PE&#xA;1OT0ZXWFlaW1xdXl9WZ2hpamtsbW5vY3R1dnd4eXp7fH1+f3OEhYaHiImKi4yNjo+Ck5SVlpeYmZ&#xA;qbnJ2en5KjpKWmp6ipqqusra6voRAAICAQIDBQUEBQYECAMDbQEAAhEDBCESMUEFURNhIgZxgZEy&#xA;obHwFMHR4SNCFVJicvEzJDRDghaSUyWiY7LCB3PSNeJEgxdUkwgJChgZJjZFGidkdFU38qOzwygp&#xA;0+PzhJSktMTU5PRldYWVpbXF1eX1RlZmdoaWprbG1ub2R1dnd4eXp7fH1+f3OEhYaHiImKi4yNjo&#xA;+DlJWWl5iZmpucnZ6fkqOkpaanqKmqq6ytrq+v/aAAwDAQACEQMRAD8A9U4q7FXYq7FXYq7FXYq7&#xA;FXYq7FXYq7FXYq7FXYq7FXYq7FXYq7FXYq7FXYq7FXYq7FXYq7FXYq7FXYq7FXYq7FXYq7FXYq7F&#xA;XYq7FXYq7FXYq7FXYq7FXYq7FXYq7FXYq7FXYq7FXYq7FXYq7FXYq7FXYq7FXYq7FXYq7FXYq7FX&#xA;Yq7FXYq7FXYq7FXYq7FXYq7FXYq7FXYq7FXYq7FXYq7FXYq7FXYq7FXYq7FXYq7FXYq7FXYq7FXY&#xA;q7FXYq7FXYq7FXYq7FXYq7FXYq7FXYq7FXYq7FXYq7FXYq7FXYq7FXYq7FXYq7FXYq7FXYq7FXYq&#xA;7FXYq7FXYq7FXYq7FXYq7FXYq7FXYq7FXYq7FXYq7FXYq7FXYq7FXYq7FXYq7FXYq7FXYq7FXYq7&#xA;FXYq7FXYq7FXYq7FXYq7FXYq7FXYq7FXYq7FXYq7FXYq7FXYq7FXYq7FXYq7FXYq7FXYq7FXYq7F&#xA;XYq7FXYq7FXYq7FXYq7FXYq7FXYq7FXYq7FXYq7FXYq7FXYq7FXYq7FXYq7FXYq7FXYq7FXYq7FX&#xA;Yq7FXYq7FXYq7FXYq7FXYq7FXYq7FXYq7FXYq7FXYq7FXYq7FXYq7FXYq7FXYq7FXYq7FXYq7FXY&#xA;q7FXYq7FXYq7FX//2Q==</xmpGImg:image>
               </rdf:li>
            </rdf:Alt>
         </xmp:Thumbnails>
         <xmpMM:OriginalDocumentID>uuid:C1BCCE1871B8DB11993190FCD52B4E9F</xmpMM:OriginalDocumentID>
         <xmpMM:DocumentID>xmp.did:556a7509-7394-4df7-a236-26dfa633cf15</xmpMM:DocumentID>
         <xmpMM:InstanceID>xmp.iid:556a7509-7394-4df7-a236-26dfa633cf15</xmpMM:InstanceID>
         <xmpMM:RenditionClass>proof:pdf</xmpMM:RenditionClass>
         <xmpMM:DerivedFrom rdf:parseType="Resource">
            <stRef:instanceID>uuid:9b23ffcc-00e8-4484-bcb0-ba523c661bd5</stRef:instanceID>
            <stRef:documentID>xmp.did:ae14ab0e-2798-a94d-ba57-f28b389f854e</stRef:documentID>
            <stRef:originalDocumentID>uuid:C1BCCE1871B8DB11993190FCD52B4E9F</stRef:originalDocumentID>
            <stRef:renditionClass>proof:pdf</stRef:renditionClass>
         </xmpMM:DerivedFrom>
         <xmpMM:History>
            <rdf:Seq>
               <rdf:li rdf:parseType="Resource">
                  <stEvt:action>saved</stEvt:action>
                  <stEvt:instanceID>xmp.iid:644fd4a1-0140-ab45-a0ce-207104715ddb</stEvt:instanceID>
                  <stEvt:when>2023-02-04T21:50:06-04:00</stEvt:when>
                  <stEvt:softwareAgent>Adobe Illustrator 24.1 (Windows)</stEvt:softwareAgent>
                  <stEvt:changed>/</stEvt:changed>
               </rdf:li>
               <rdf:li rdf:parseType="Resource">
                  <stEvt:action>saved</stEvt:action>
                  <stEvt:instanceID>xmp.iid:dae6bd21-0d3b-0149-be1b-5a79e1bdf429</stEvt:instanceID>
                  <stEvt:when>2023-02-04T22:04:49-04:00</stEvt:when>
                  <stEvt:softwareAgent>Adobe Illustrator 24.1 (Windows)</stEvt:softwareAgent>
                  <stEvt:changed>/</stEvt:changed>
               </rdf:li>
               <rdf:li rdf:parseType="Resource">
                  <stEvt:action>converted</stEvt:action>
                  <stEvt:parameters>from application/postscript to application/vnd.adobe.illustrator</stEvt:parameters>
               </rdf:li>
               <rdf:li rdf:parseType="Resource">
                  <stEvt:action>saved</stEvt:action>
                  <stEvt:instanceID>xmp.iid:727b9e1f-7aae-6c45-a927-940d3ac4168b</stEvt:instanceID>
                  <stEvt:when>2023-07-20T13:12:25-04:00</stEvt:when>
                  <stEvt:softwareAgent>Adobe Illustrator 24.1 (Windows)</stEvt:softwareAgent>
                  <stEvt:changed>/</stEvt:changed>
               </rdf:li>
               <rdf:li rdf:parseType="Resource">
                  <stEvt:action>saved</stEvt:action>
                  <stEvt:instanceID>xmp.iid:556a7509-7394-4df7-a236-26dfa633cf15</stEvt:instanceID>
                  <stEvt:when>2025-08-14T10:59:45-05:00</stEvt:when>
                  <stEvt:softwareAgent>Adobe Illustrator 29.7 (Macintosh)</stEvt:softwareAgent>
                  <stEvt:changed>/</stEvt:changed>
               </rdf:li>
            </rdf:Seq>
         </xmpMM:History>
         <illustrator:StartupProfile>Mobile</illustrator:StartupProfile>
         <illustrator:CreatorSubTool>AIRobin</illustrator:CreatorSubTool>
         <pdf:Producer>Adobe PDF library 15.00</pdf:Producer>
         <pdfx:CreatorVersion>21.0.0</pdfx:CreatorVersion>
         <xmpTPg:NPages>1</xmpTPg:NPages>
         <xmpTPg:HasVisibleTransparency>False</xmpTPg:HasVisibleTransparency>
         <xmpTPg:HasVisibleOverprint>False</xmpTPg:HasVisibleOverprint>
         <xmpTPg:MaxPageSize rdf:parseType="Resource">
            <stDim:w>1080.000000</stDim:w>
            <stDim:h>1080.000000</stDim:h>
            <stDim:unit>Pixels</stDim:unit>
         </xmpTPg:MaxPageSize>
         <xmpTPg:SwatchGroups>
            <rdf:Seq>
               <rdf:li rdf:parseType="Resource">
                  <xmpG:groupName>Default Swatch Group</xmpG:groupName>
                  <xmpG:groupType>0</xmpG:groupType>
                  <xmpG:Colorants>
                     <rdf:Seq>
                        <rdf:li rdf:parseType="Resource">
                           <xmpG:swatchName>Blanco</xmpG:swatchName>
                           <xmpG:mode>RGB</xmpG:mode>
                           <xmpG:type>PROCESS</xmpG:type>
                           <xmpG:red>255</xmpG:red>
                           <xmpG:green>255</xmpG:green>
                           <xmpG:blue>255</xmpG:blue>
                        </rdf:li>
                        <rdf:li rdf:parseType="Resource">
                           <xmpG:swatchName>Negro</xmpG:swatchName>
                           <xmpG:mode>RGB</xmpG:mode>
                           <xmpG:type>PROCESS</xmpG:type>
                           <xmpG:red>0</xmpG:red>
                           <xmpG:green>0</xmpG:green>
                           <xmpG:blue>0</xmpG:blue>
                        </rdf:li>
                        <rdf:li rdf:parseType="Resource">
                           <xmpG:swatchName>Rojo RGB</xmpG:swatchName>
                           <xmpG:mode>RGB</xmpG:mode>
                           <xmpG:type>PROCESS</xmpG:type>
                           <xmpG:red>255</xmpG:red>
                           <xmpG:green>0</xmpG:green>
                           <xmpG:blue>0</xmpG:blue>
                        </rdf:li>
                        <rdf:li rdf:parseType="Resource">
                           <xmpG:swatchName>Amarillo RGB</xmpG:swatchName>
                           <xmpG:mode>RGB</xmpG:mode>
                           <xmpG:type>PROCESS</xmpG:type>
                           <xmpG:red>255</xmpG:red>
                           <xmpG:green>255</xmpG:green>
                           <xmpG:blue>0</xmpG:blue>
                        </rdf:li>
                        <rdf:li rdf:parseType="Resource">
                           <xmpG:swatchName>Verde RGB</xmpG:swatchName>
                           <xmpG:mode>RGB</xmpG:mode>
                           <xmpG:type>PROCESS</xmpG:type>
                           <xmpG:red>0</xmpG:red>
                           <xmpG:green>255</xmpG:green>
                           <xmpG:blue>0</xmpG:blue>
                        </rdf:li>
                        <rdf:li rdf:parseType="Resource">
                           <xmpG:swatchName>Cian RGB</xmpG:swatchName>
                           <xmpG:mode>RGB</xmpG:mode>
                           <xmpG:type>PROCESS</xmpG:type>
                           <xmpG:red>0</xmpG:red>
                           <xmpG:green>255</xmpG:green>
                           <xmpG:blue>255</xmpG:blue>
                        </rdf:li>
                        <rdf:li rdf:parseType="Resource">
                           <xmpG:swatchName>Azul RGB</xmpG:swatchName>
                           <xmpG:mode>RGB</xmpG:mode>
                           <xmpG:type>PROCESS</xmpG:type>
                           <xmpG:red>0</xmpG:red>
                           <xmpG:green>0</xmpG:green>
                           <xmpG:blue>255</xmpG:blue>
                        </rdf:li>
                        <rdf:li rdf:parseType="Resource">
                           <xmpG:swatchName>Magenta RGB</xmpG:swatchName>
                           <xmpG:mode>RGB</xmpG:mode>
                           <xmpG:type>PROCESS</xmpG:type>
                           <xmpG:red>255</xmpG:red>
                           <xmpG:green>0</xmpG:green>
                           <xmpG:blue>255</xmpG:blue>
                        </rdf:li>
                        <rdf:li rdf:parseType="Resource">
                           <xmpG:swatchName>R=193 G=39 B=45</xmpG:swatchName>
                           <xmpG:mode>RGB</xmpG:mode>
                           <xmpG:type>PROCESS</xmpG:type>
                           <xmpG:red>193</xmpG:red>
                           <xmpG:green>39</xmpG:green>
                           <xmpG:blue>45</xmpG:blue>
                        </rdf:li>
                        <rdf:li rdf:parseType="Resource">
                           <xmpG:swatchName>R=237 G=28 B=36</xmpG:swatchName>
                           <xmpG:mode>RGB</xmpG:mode>
                           <xmpG:type>PROCESS</xmpG:type>
                           <xmpG:red>237</xmpG:red>
                           <xmpG:green>28</xmpG:green>
                           <xmpG:blue>36</xmpG:blue>
                        </rdf:li>
                        <rdf:li rdf:parseType="Resource">
                           <xmpG:swatchName>R=241 G=90 B=36</xmpG:swatchName>
                           <xmpG:mode>RGB</xmpG:mode>
                           <xmpG:type>PROCESS</xmpG:type>
                           <xmpG:red>241</xmpG:red>
                           <xmpG:green>90</xmpG:green>
                           <xmpG:blue>36</xmpG:blue>
                        </rdf:li>
                        <rdf:li rdf:parseType="Resource">
                           <xmpG:swatchName>R=247 G=147 B=30</xmpG:swatchName>
                           <xmpG:mode>RGB</xmpG:mode>
                           <xmpG:type>PROCESS</xmpG:type>
                           <xmpG:red>247</xmpG:red>
                           <xmpG:green>147</xmpG:green>
                           <xmpG:blue>30</xmpG:blue>
                        </rdf:li>
                        <rdf:li rdf:parseType="Resource">
                           <xmpG:swatchName>R=251 G=176 B=59</xmpG:swatchName>
                           <xmpG:mode>RGB</xmpG:mode>
                           <xmpG:type>PROCESS</xmpG:type>
                           <xmpG:red>251</xmpG:red>
                           <xmpG:green>176</xmpG:green>
                           <xmpG:blue>59</xmpG:blue>
                        </rdf:li>
                        <rdf:li rdf:parseType="Resource">
                           <xmpG:swatchName>R=252 G=238 B=33</xmpG:swatchName>
                           <xmpG:mode>RGB</xmpG:mode>
                           <xmpG:type>PROCESS</xmpG:type>
                           <xmpG:red>252</xmpG:red>
                           <xmpG:green>238</xmpG:green>
                           <xmpG:blue>33</xmpG:blue>
                        </rdf:li>
                        <rdf:li rdf:parseType="Resource">
                           <xmpG:swatchName>R=217 G=224 B=33</xmpG:swatchName>
                           <xmpG:mode>RGB</xmpG:mode>
                           <xmpG:type>PROCESS</xmpG:type>
                           <xmpG:red>217</xmpG:red>
                           <xmpG:green>224</xmpG:green>
                           <xmpG:blue>33</xmpG:blue>
                        </rdf:li>
                        <rdf:li rdf:parseType="Resource">
                           <xmpG:swatchName>R=140 G=198 B=63</xmpG:swatchName>
                           <xmpG:mode>RGB</xmpG:mode>
                           <xmpG:type>PROCESS</xmpG:type>
                           <xmpG:red>140</xmpG:red>
                           <xmpG:green>198</xmpG:green>
                           <xmpG:blue>63</xmpG:blue>
                        </rdf:li>
                        <rdf:li rdf:parseType="Resource">
                           <xmpG:swatchName>R=57 G=181 B=74</xmpG:swatchName>
                           <xmpG:mode>RGB</xmpG:mode>
                           <xmpG:type>PROCESS</xmpG:type>
                           <xmpG:red>57</xmpG:red>
                           <xmpG:green>181</xmpG:green>
                           <xmpG:blue>74</xmpG:blue>
                        </rdf:li>
                        <rdf:li rdf:parseType="Resource">
                           <xmpG:swatchName>R=0 G=146 B=69</xmpG:swatchName>
                           <xmpG:mode>RGB</xmpG:mode>
                           <xmpG:type>PROCESS</xmpG:type>
                           <xmpG:red>0</xmpG:red>
                           <xmpG:green>146</xmpG:green>
                           <xmpG:blue>69</xmpG:blue>
                        </rdf:li>
                        <rdf:li rdf:parseType="Resource">
                           <xmpG:swatchName>R=0 G=104 B=55</xmpG:swatchName>
                           <xmpG:mode>RGB</xmpG:mode>
                           <xmpG:type>PROCESS</xmpG:type>
                           <xmpG:red>0</xmpG:red>
                           <xmpG:green>104</xmpG:green>
                           <xmpG:blue>55</xmpG:blue>
                        </rdf:li>
                        <rdf:li rdf:parseType="Resource">
                           <xmpG:swatchName>R=34 G=181 B=115</xmpG:swatchName>
                           <xmpG:mode>RGB</xmpG:mode>
                           <xmpG:type>PROCESS</xmpG:type>
                           <xmpG:red>34</xmpG:red>
                           <xmpG:green>181</xmpG:green>
                           <xmpG:blue>115</xmpG:blue>
                        </rdf:li>
                        <rdf:li rdf:parseType="Resource">
                           <xmpG:swatchName>R=0 G=169 B=157</xmpG:swatchName>
                           <xmpG:mode>RGB</xmpG:mode>
                           <xmpG:type>PROCESS</xmpG:type>
                           <xmpG:red>0</xmpG:red>
                           <xmpG:green>169</xmpG:green>
                           <xmpG:blue>157</xmpG:blue>
                        </rdf:li>
                        <rdf:li rdf:parseType="Resource">
                           <xmpG:swatchName>R=41 G=171 B=226</xmpG:swatchName>
                           <xmpG:mode>RGB</xmpG:mode>
                           <xmpG:type>PROCESS</xmpG:type>
                           <xmpG:red>41</xmpG:red>
                           <xmpG:green>171</xmpG:green>
                           <xmpG:blue>226</xmpG:blue>
                        </rdf:li>
                        <rdf:li rdf:parseType="Resource">
                           <xmpG:swatchName>R=0 G=113 B=188</xmpG:swatchName>
                           <xmpG:mode>RGB</xmpG:mode>
                           <xmpG:type>PROCESS</xmpG:type>
                           <xmpG:red>0</xmpG:red>
                           <xmpG:green>113</xmpG:green>
                           <xmpG:blue>188</xmpG:blue>
                        </rdf:li>
                        <rdf:li rdf:parseType="Resource">
                           <xmpG:swatchName>R=46 G=49 B=146</xmpG:swatchName>
                           <xmpG:mode>RGB</xmpG:mode>
                           <xmpG:type>PROCESS</xmpG:type>
                           <xmpG:red>46</xmpG:red>
                           <xmpG:green>49</xmpG:green>
                           <xmpG:blue>146</xmpG:blue>
                        </rdf:li>
                        <rdf:li rdf:parseType="Resource">
                           <xmpG:swatchName>R=27 G=20 B=100</xmpG:swatchName>
                           <xmpG:mode>RGB</xmpG:mode>
                           <xmpG:type>PROCESS</xmpG:type>
                           <xmpG:red>27</xmpG:red>
                           <xmpG:green>20</xmpG:green>
                           <xmpG:blue>100</xmpG:blue>
                        </rdf:li>
                        <rdf:li rdf:parseType="Resource">
                           <xmpG:swatchName>R=102 G=45 B=145</xmpG:swatchName>
                           <xmpG:mode>RGB</xmpG:mode>
                           <xmpG:type>PROCESS</xmpG:type>
                           <xmpG:red>102</xmpG:red>
                           <xmpG:green>45</xmpG:green>
                           <xmpG:blue>145</xmpG:blue>
                        </rdf:li>
                        <rdf:li rdf:parseType="Resource">
                           <xmpG:swatchName>R=147 G=39 B=143</xmpG:swatchName>
                           <xmpG:mode>RGB</xmpG:mode>
                           <xmpG:type>PROCESS</xmpG:type>
                           <xmpG:red>147</xmpG:red>
                           <xmpG:green>39</xmpG:green>
                           <xmpG:blue>143</xmpG:blue>
                        </rdf:li>
                        <rdf:li rdf:parseType="Resource">
                           <xmpG:swatchName>R=158 G=0 B=93</xmpG:swatchName>
                           <xmpG:mode>RGB</xmpG:mode>
                           <xmpG:type>PROCESS</xmpG:type>
                           <xmpG:red>158</xmpG:red>
                           <xmpG:green>0</xmpG:green>
                           <xmpG:blue>93</xmpG:blue>
                        </rdf:li>
                        <rdf:li rdf:parseType="Resource">
                           <xmpG:swatchName>R=212 G=20 B=90</xmpG:swatchName>
                           <xmpG:mode>RGB</xmpG:mode>
                           <xmpG:type>PROCESS</xmpG:type>
                           <xmpG:red>212</xmpG:red>
                           <xmpG:green>20</xmpG:green>
                           <xmpG:blue>90</xmpG:blue>
                        </rdf:li>
                        <rdf:li rdf:parseType="Resource">
                           <xmpG:swatchName>R=237 G=30 B=121</xmpG:swatchName>
                           <xmpG:mode>RGB</xmpG:mode>
                           <xmpG:type>PROCESS</xmpG:type>
                           <xmpG:red>237</xmpG:red>
                           <xmpG:green>30</xmpG:green>
                           <xmpG:blue>121</xmpG:blue>
                        </rdf:li>
                        <rdf:li rdf:parseType="Resource">
                           <xmpG:swatchName>R=199 G=178 B=153</xmpG:swatchName>
                           <xmpG:mode>RGB</xmpG:mode>
                           <xmpG:type>PROCESS</xmpG:type>
                           <xmpG:red>199</xmpG:red>
                           <xmpG:green>178</xmpG:green>
                           <xmpG:blue>153</xmpG:blue>
                        </rdf:li>
                        <rdf:li rdf:parseType="Resource">
                           <xmpG:swatchName>R=153 G=134 B=117</xmpG:swatchName>
                           <xmpG:mode>RGB</xmpG:mode>
                           <xmpG:type>PROCESS</xmpG:type>
                           <xmpG:red>153</xmpG:red>
                           <xmpG:green>134</xmpG:green>
                           <xmpG:blue>117</xmpG:blue>
                        </rdf:li>
                        <rdf:li rdf:parseType="Resource">
                           <xmpG:swatchName>R=115 G=99 B=87</xmpG:swatchName>
                           <xmpG:mode>RGB</xmpG:mode>
                           <xmpG:type>PROCESS</xmpG:type>
                           <xmpG:red>115</xmpG:red>
                           <xmpG:green>99</xmpG:green>
                           <xmpG:blue>87</xmpG:blue>
                        </rdf:li>
                        <rdf:li rdf:parseType="Resource">
                           <xmpG:swatchName>R=83 G=71 B=65</xmpG:swatchName>
                           <xmpG:mode>RGB</xmpG:mode>
                           <xmpG:type>PROCESS</xmpG:type>
                           <xmpG:red>83</xmpG:red>
                           <xmpG:green>71</xmpG:green>
                           <xmpG:blue>65</xmpG:blue>
                        </rdf:li>
                        <rdf:li rdf:parseType="Resource">
                           <xmpG:swatchName>R=198 G=156 B=109</xmpG:swatchName>
                           <xmpG:mode>RGB</xmpG:mode>
                           <xmpG:type>PROCESS</xmpG:type>
                           <xmpG:red>198</xmpG:red>
                           <xmpG:green>156</xmpG:green>
                           <xmpG:blue>109</xmpG:blue>
                        </rdf:li>
                        <rdf:li rdf:parseType="Resource">
                           <xmpG:swatchName>R=166 G=124 B=82</xmpG:swatchName>
                           <xmpG:mode>RGB</xmpG:mode>
                           <xmpG:type>PROCESS</xmpG:type>
                           <xmpG:red>166</xmpG:red>
                           <xmpG:green>124</xmpG:green>
                           <xmpG:blue>82</xmpG:blue>
                        </rdf:li>
                        <rdf:li rdf:parseType="Resource">
                           <xmpG:swatchName>R=140 G=98 B=57</xmpG:swatchName>
                           <xmpG:mode>RGB</xmpG:mode>
                           <xmpG:type>PROCESS</xmpG:type>
                           <xmpG:red>140</xmpG:red>
                           <xmpG:green>98</xmpG:green>
                           <xmpG:blue>57</xmpG:blue>
                        </rdf:li>
                        <rdf:li rdf:parseType="Resource">
                           <xmpG:swatchName>R=117 G=76 B=36</xmpG:swatchName>
                           <xmpG:mode>RGB</xmpG:mode>
                           <xmpG:type>PROCESS</xmpG:type>
                           <xmpG:red>117</xmpG:red>
                           <xmpG:green>76</xmpG:green>
                           <xmpG:blue>36</xmpG:blue>
                        </rdf:li>
                        <rdf:li rdf:parseType="Resource">
                           <xmpG:swatchName>R=96 G=56 B=19</xmpG:swatchName>
                           <xmpG:mode>RGB</xmpG:mode>
                           <xmpG:type>PROCESS</xmpG:type>
                           <xmpG:red>96</xmpG:red>
                           <xmpG:green>56</xmpG:green>
                           <xmpG:blue>19</xmpG:blue>
                        </rdf:li>
                        <rdf:li rdf:parseType="Resource">
                           <xmpG:swatchName>R=66 G=33 B=11</xmpG:swatchName>
                           <xmpG:mode>RGB</xmpG:mode>
                           <xmpG:type>PROCESS</xmpG:type>
                           <xmpG:red>66</xmpG:red>
                           <xmpG:green>33</xmpG:green>
                           <xmpG:blue>11</xmpG:blue>
                        </rdf:li>
                     </rdf:Seq>
                  </xmpG:Colorants>
               </rdf:li>
               <rdf:li rdf:parseType="Resource">
                  <xmpG:groupName>Grises</xmpG:groupName>
                  <xmpG:groupType>1</xmpG:groupType>
                  <xmpG:Colorants>
                     <rdf:Seq>
                        <rdf:li rdf:parseType="Resource">
                           <xmpG:swatchName>R=0 G=0 B=0</xmpG:swatchName>
                           <xmpG:mode>RGB</xmpG:mode>
                           <xmpG:type>PROCESS</xmpG:type>
                           <xmpG:red>0</xmpG:red>
                           <xmpG:green>0</xmpG:green>
                           <xmpG:blue>0</xmpG:blue>
                        </rdf:li>
                        <rdf:li rdf:parseType="Resource">
                           <xmpG:swatchName>R=26 G=26 B=26</xmpG:swatchName>
                           <xmpG:mode>RGB</xmpG:mode>
                           <xmpG:type>PROCESS</xmpG:type>
                           <xmpG:red>26</xmpG:red>
                           <xmpG:green>26</xmpG:green>
                           <xmpG:blue>26</xmpG:blue>
                        </rdf:li>
                        <rdf:li rdf:parseType="Resource">
                           <xmpG:swatchName>R=51 G=51 B=51</xmpG:swatchName>
                           <xmpG:mode>RGB</xmpG:mode>
                           <xmpG:type>PROCESS</xmpG:type>
                           <xmpG:red>51</xmpG:red>
                           <xmpG:green>51</xmpG:green>
                           <xmpG:blue>51</xmpG:blue>
                        </rdf:li>
                        <rdf:li rdf:parseType="Resource">
                           <xmpG:swatchName>R=77 G=77 B=77</xmpG:swatchName>
                           <xmpG:mode>RGB</xmpG:mode>
                           <xmpG:type>PROCESS</xmpG:type>
                           <xmpG:red>77</xmpG:red>
                           <xmpG:green>77</xmpG:green>
                           <xmpG:blue>77</xmpG:blue>
                        </rdf:li>
                        <rdf:li rdf:parseType="Resource">
                           <xmpG:swatchName>R=102 G=102 B=102</xmpG:swatchName>
                           <xmpG:mode>RGB</xmpG:mode>
                           <xmpG:type>PROCESS</xmpG:type>
                           <xmpG:red>102</xmpG:red>
                           <xmpG:green>102</xmpG:green>
                           <xmpG:blue>102</xmpG:blue>
                        </rdf:li>
                        <rdf:li rdf:parseType="Resource">
                           <xmpG:swatchName>R=128 G=128 B=128</xmpG:swatchName>
                           <xmpG:mode>RGB</xmpG:mode>
                           <xmpG:type>PROCESS</xmpG:type>
                           <xmpG:red>128</xmpG:red>
                           <xmpG:green>128</xmpG:green>
                           <xmpG:blue>128</xmpG:blue>
                        </rdf:li>
                        <rdf:li rdf:parseType="Resource">
                           <xmpG:swatchName>R=153 G=153 B=153</xmpG:swatchName>
                           <xmpG:mode>RGB</xmpG:mode>
                           <xmpG:type>PROCESS</xmpG:type>
                           <xmpG:red>153</xmpG:red>
                           <xmpG:green>153</xmpG:green>
                           <xmpG:blue>153</xmpG:blue>
                        </rdf:li>
                        <rdf:li rdf:parseType="Resource">
                           <xmpG:swatchName>R=179 G=179 B=179</xmpG:swatchName>
                           <xmpG:mode>RGB</xmpG:mode>
                           <xmpG:type>PROCESS</xmpG:type>
                           <xmpG:red>179</xmpG:red>
                           <xmpG:green>179</xmpG:green>
                           <xmpG:blue>179</xmpG:blue>
                        </rdf:li>
                        <rdf:li rdf:parseType="Resource">
                           <xmpG:swatchName>R=204 G=204 B=204</xmpG:swatchName>
                           <xmpG:mode>RGB</xmpG:mode>
                           <xmpG:type>PROCESS</xmpG:type>
                           <xmpG:red>204</xmpG:red>
                           <xmpG:green>204</xmpG:green>
                           <xmpG:blue>204</xmpG:blue>
                        </rdf:li>
                        <rdf:li rdf:parseType="Resource">
                           <xmpG:swatchName>R=230 G=230 B=230</xmpG:swatchName>
                           <xmpG:mode>RGB</xmpG:mode>
                           <xmpG:type>PROCESS</xmpG:type>
                           <xmpG:red>230</xmpG:red>
                           <xmpG:green>230</xmpG:green>
                           <xmpG:blue>230</xmpG:blue>
                        </rdf:li>
                        <rdf:li rdf:parseType="Resource">
                           <xmpG:swatchName>R=242 G=242 B=242</xmpG:swatchName>
                           <xmpG:mode>RGB</xmpG:mode>
                           <xmpG:type>PROCESS</xmpG:type>
                           <xmpG:red>242</xmpG:red>
                           <xmpG:green>242</xmpG:green>
                           <xmpG:blue>242</xmpG:blue>
                        </rdf:li>
                     </rdf:Seq>
                  </xmpG:Colorants>
               </rdf:li>
               <rdf:li rdf:parseType="Resource">
                  <xmpG:groupName>Grupo de colores móviles</xmpG:groupName>
                  <xmpG:groupType>1</xmpG:groupType>
                  <xmpG:Colorants>
                     <rdf:Seq>
                        <rdf:li rdf:parseType="Resource">
                           <xmpG:swatchName>R=136 G=168 B=13</xmpG:swatchName>
                           <xmpG:mode>RGB</xmpG:mode>
                           <xmpG:type>PROCESS</xmpG:type>
                           <xmpG:red>136</xmpG:red>
                           <xmpG:green>168</xmpG:green>
                           <xmpG:blue>13</xmpG:blue>
                        </rdf:li>
                        <rdf:li rdf:parseType="Resource">
                           <xmpG:swatchName>R=127 G=71 B=221</xmpG:swatchName>
                           <xmpG:mode>RGB</xmpG:mode>
                           <xmpG:type>PROCESS</xmpG:type>
                           <xmpG:red>127</xmpG:red>
                           <xmpG:green>71</xmpG:green>
                           <xmpG:blue>221</xmpG:blue>
                        </rdf:li>
                        <rdf:li rdf:parseType="Resource">
                           <xmpG:swatchName>R=251 G=174 B=23</xmpG:swatchName>
                           <xmpG:mode>RGB</xmpG:mode>
                           <xmpG:type>PROCESS</xmpG:type>
                           <xmpG:red>251</xmpG:red>
                           <xmpG:green>174</xmpG:green>
                           <xmpG:blue>23</xmpG:blue>
                        </rdf:li>
                     </rdf:Seq>
                  </xmpG:Colorants>
               </rdf:li>
            </rdf:Seq>
         </xmpTPg:SwatchGroups>
      </rdf:Description>
   </rdf:RDF>
</x:xmpmeta>
                                                                                                    
                                                                                                    
                                                                                                    
                                                                                                    
                                                                                                    
                                                                                                    
                                                                                                    
                                                                                                    
                                                                                                    
                                                                                                    
                                                                                                    
                                                                                                    
                                                                                                    
                                                                                                    
                                                                                                    
                                                                                                    
                                                                                                    
                                                                                                    
                                                                                                    
                                                                                                    
                           
<?xpacket end="w"?>
  </metadata>
</svg>