<?xml version="1.0" encoding="UTF-8"?>
<svg id="Capa_1" data-name="Capa 1" xmlns="http://www.w3.org/2000/svg" viewBox="0 0 1080 1080">
  <defs>
    <style>
      .cls-1 {
        fill: #fff;
      }
    </style>
  </defs>
  <path class="cls-1" d="M672.92,514.74h-66.29v82.26h29.98v-25.16h36.07c23.44,0,36.42-10,36.53-28.15,0-18.61-12.98-28.95-36.3-28.95ZM662.92,554.95h-26.31v-23.32h26.31c10.45,0,16.2,4.14,16.2,11.6s-5.74,11.72-16.2,11.72Z"/>
  <polygon class="cls-1" points="747.01 514.74 717.03 514.74 717.03 597 796.99 597 796.99 575.06 747.01 575.06 747.01 514.74"/>
  <path class="cls-1" d="M839.95,514.74l-41.01,82.26h31.02l6.32-14.36h41.01l6.43,14.36h31.13l-40.09-82.26h-34.81ZM842.13,565.75l14.71-32.51h.23l14.48,32.51h-29.41Z"/>
  <polygon class="cls-1" points="1001.13 514.74 1001.13 568.39 1001.01 568.39 956.78 514.74 920.71 514.74 920.71 597 948.97 597 948.97 542.66 949.08 542.66 993.43 597 1029.39 597 1029.39 514.74 1001.13 514.74"/>
  <path class="cls-1" d="M320.1,515.08h-13.79c-.4,0-.77.24-.92.61l-28.66,68.48-28.77-68.48c-.16-.37-.52-.61-.92-.61h-13.79c-.55,0-1,.45-1,1v80.99c0,.55.45,1,1,1h9.54c.55,0,1-.45,1-1v-62.74l26.92,63.13c.16.37.52.61.92.61h10.11c.4,0,.76-.24.92-.61l26.92-63.24v62.84c0,.55.45,1,1,1h9.54c.55,0,1-.45,1-1v-80.99c0-.55-.45-1-1-1Z"/>
  <path class="cls-1" d="M374.55,514.78c-26.31,0-43.54,17.23-43.54,43.43s17.23,43.31,43.54,43.31,43.66-17.23,43.66-43.31-17.23-43.43-43.66-43.43ZM374.55,593.02c-20.56,0-34.01-13.9-34.01-34.81s13.44-34.92,34.01-34.92,34.01,13.9,34.01,34.92-13.44,34.81-34.01,34.81Z"/>
  <path class="cls-1" d="M482.39,524.28v-8.5c0-.55-.45-1-1-1h-63.76c-.55,0-1,.45-1,1v8.5c0,.55.45,1,1,1h26.11v71.49c0,.55.45,1,1,1h9.54c.55,0,1-.45,1-1v-71.49h26.11c.55,0,1-.45,1-1Z"/>
  <path class="cls-1" d="M594.95,522.88c-1.99-.41-4.06-.62-6.14-.62-7.04,0-13.64,2.32-20.35,4.91-.64.25-1.1.8-1.24,1.47-.14.67.08,1.36.57,1.84,1.08,1.04,2.31,1.56,3.67,1.56.93,0,1.74-.24,2.46-.45.18-.05.37-.11.62-.17,4.95-1.29,9.62-2.52,14.5-2.52.2,0,.87,0,.87,0,.36,0,.74-.01,1.12-.03.34-.01.68-.03,1.02-.03,1.66,0,1.82.39,2,.81.41.96-.2,1.88-1.58,3.59-.17.21-.34.42-.5.63-2.44,3.14-5.49,6.07-9.33,8.96-27.68,20.89-58.68,36.35-92.12,45.97-4.67,1.34-8.55,1.97-12.2,1.97-.48,0-.96-.01-1.44-.04-2.81-.14-3.23-.82-3.23-.82,0,0-.29-.74,1.27-3.04,2.35-3.46,5.46-6.3,9.4-9.49,1.13-.91,2.27-1.8,3.42-2.69.95-.74,1.91-1.48,2.85-2.24,2.43-1.94,1.6-3.93,1.13-4.7-.58-.95-1.52-1.5-2.57-1.5-.72,0-1.43.25-2.06.73-.83.63-1.67,1.25-2.51,1.87-6.49,4.81-13.2,9.79-16.89,17.78-1.04,2.26-1.07,4.54-.06,6.41,1.1,2.06,3.3,3.44,6.2,3.91,1.43.23,2.93.34,4.46.34,2.38,0,4.88-.27,7.66-.82,20.14-4,38.46-12.21,53.73-19.72,14.83-7.29,33.99-17.5,50.59-31.78,3.6-3.1,7.3-6.51,9.51-11.24,1.63-3.49,1.15-5.88.45-7.27-.64-1.28-2.08-2.95-5.29-3.62Z"/>
  <path class="cls-1" d="M503.32,580.5c.08,0,.16.01.24.01.67,0,1.3-.34,1.68-.91.42-.64.43-1.46.04-2.11-12.1-20.36-9.45-39.32,7.08-50.7,5.91-4.07,12.33-6.13,19.07-6.13,1.99,0,4.03.18,6.07.54,13.86,2.43,23.21,10.89,28.58,25.88.29.8,1.05,1.33,1.88,1.33.08,0,.16,0,.24-.01.93-.11,1.65-.85,1.75-1.78.54-5.14-1.57-10.92-5.95-16.29-6.85-8.4-17.97-14.49-28.33-15.51-1.29-.13-2.61-.19-3.9-.19-20.33,0-37.91,15.65-40.02,35.63-1.35,12.83,3.73,29.31,11.58,30.25Z"/>
  <path class="cls-1" d="M573.01,562.92c-.13-.03-.26-.04-.39-.04-.86,0-1.64.56-1.91,1.4-6.57,21.05-17.97,31.29-34.84,31.29-5.95,0-12.67-1.3-19.99-3.88-.22-.08-.44-.11-.66-.11-.76,0-1.47.43-1.81,1.15-.44.93-.1,2.04.79,2.57,7.08,4.23,14.25,6.37,21.32,6.37,6.37,0,12.75-1.74,18.96-5.17,12.15-6.71,18.92-17.29,20.14-31.45.09-1.02-.6-1.94-1.61-2.13Z"/>
  <path class="cls-1" d="M85.34,469.62c-4.12,10.05-7.27,22.05-8.9,35.08-4.78,38.25,5.34,71.01,22.6,73.17,11.79,1.48,23.85-11.71,31.84-32.39.35-.9.69-1.83,1.03-2.77,4.18-9.28,14.19-14.27,23.38-11.26,9.39,3.08,14.53,13.4,12.04,23.56-.69,1.91-1.43,3.77-2.22,5.6-15.8,36.94-49.19,58.64-77.98,49.21-31.08-10.18-45.02-52.79-31.14-95.17,6.16-18.79,16.75-34.39,29.35-45.03Z"/>
  <path class="cls-1" d="M187.61,574.89c4.12-10.05,7.27-22.05,8.9-35.08,4.78-38.25-5.34-71.01-22.6-73.17-11.79-1.48-23.85,11.71-31.84,32.39-.35.9-.69,1.83-1.03,2.77-4.18,9.28-14.19,14.27-23.38,11.26-9.39-3.08-14.53-13.4-12.04-23.56.69-1.91,1.43-3.77,2.22-5.6,15.8-36.94,49.19-58.64,77.98-49.21,31.08,10.18,45.02,52.79,31.14,95.17-6.16,18.79-16.75,34.39-29.35,45.03Z"/>
  <circle class="cls-1" cx="165.41" cy="509.13" r="18.57"/>
  <circle class="cls-1" cx="104" cy="532.15" r="18.57"/>
  <path class="cls-1" d="M107.82,492.85s13.33-48.07,56.85-54.51c0,0-32.59,10.03-56.85,54.51Z"/>
  <path class="cls-1" d="M164.66,550.73s-13.33,48.07-56.85,54.51c0,0,32.59-10.03,56.85-54.51Z"/>
  <path class="cls-1" d="M193.1,488.58s12.97,19.53-5.43,86.37c0,0,26.14-44.58,5.43-86.37Z"/>
  <path class="cls-1" d="M187.7,440.24s40.81,16.6,28.74,73.95c0,0,3.9-43.09-28.74-73.95Z"/>
  <path class="cls-1" d="M85.44,604.64s-40.81-16.6-28.74-73.95c0,0-3.9,43.09,28.74,73.95Z"/>
  <path class="cls-1" d="M115.49,575.3s-21.8,18.94-35.04-10.4c0,0,8.99,34.94,35.04,10.4Z"/>
  <path class="cls-1" d="M85.31,469.62s-9.32,22.58-10.15,51.84c0,0-3.49-32.38,10.15-51.84Z"/>
  <path class="cls-1" d="M800.92,625.11h11.24l3.13,13.15h.06l7.38-13.15h11.27l-3.46,21.86h-8.02l2.03-12.57-.06-.03-7.04,12.6h-6.77l-3.19-12.6h-.06l-1.94,12.6h-8.02l3.46-21.86Z"/>
  <path class="cls-1" d="M834.21,638.01c0-8.17,7.17-13.63,15.85-13.63,7.8,0,12.57,3.77,12.57,9.69,0,8.14-7.17,13.63-15.85,13.63-7.8,0-12.57-3.76-12.57-9.69ZM853.76,635.04c0-2.46-1.73-3.98-4.65-3.98-3.55,0-6.04,2.67-6.04,5.98,0,2.46,1.73,3.98,4.65,3.98,3.55,0,6.04-2.67,6.04-5.98Z"/>
  <path class="cls-1" d="M870.5,631.79h-6.47l1.06-6.68h21.74l-1.06,6.68h-6.5l-2.4,15.18h-8.78l2.4-15.18Z"/>
  <path class="cls-1" d="M885.83,638.01c0-8.17,7.17-13.63,15.85-13.63,7.8,0,12.57,3.77,12.57,9.69,0,8.14-7.17,13.63-15.85,13.63-7.8,0-12.57-3.76-12.57-9.69ZM905.39,635.04c0-2.46-1.73-3.98-4.65-3.98-3.55,0-6.04,2.67-6.04,5.98,0,2.46,1.73,3.98,4.65,3.98,3.55,0,6.04-2.67,6.04-5.98Z"/>
  <path class="cls-1" d="M928.86,643.39l-.49-1.88c-.42-.97-1.21-1.52-2.34-1.52h-1.7l-1.09,6.98h-8.78l3.46-21.86h14.54c5.44,0,8.5,2.19,8.5,6.16,0,3.4-2.12,6.07-5.98,7.14v.03c.79.27,1.21.91,1.43,1.85l.64,1.58c.18.55.58.88,1.28.88.39,0,.97-.15,1.34-.36l.52,3.58c-1.43.94-3.92,1.58-5.89,1.58-3.22,0-4.8-1.91-5.44-4.16ZM928.95,634.98c2,0,3.13-.91,3.13-2.58,0-1.18-.85-1.82-2.43-1.82h-3.83l-.7,4.4h3.83Z"/>
  <path class="cls-1" d="M941.07,642.51l5.53-3.31c1.34,1.58,4.01,2.67,6.83,2.67,1.97,0,3.22-.46,3.22-1.31,0-.7-.91-1.18-2.55-1.43l-3.22-.42c-5.47-.79-7.8-2.61-7.8-6.1,0-5.68,5.53-8.17,11.87-8.17,5.31,0,9.08,1.76,10.51,4.46l-5.13,3.22c-1.12-1.25-3.16-2.12-5.37-2.12-1.97,0-3.4.42-3.4,1.24,0,.67,1.03,1.03,2.7,1.31l2.85.4c5.65.82,8.05,2.76,8.05,6.38,0,5.44-5.95,8.29-12.51,8.29-5.65,0-9.99-1.94-11.57-5.1Z"/>
  <path class="cls-1" d="M972.29,637.59c0-7.59,6.71-13.06,14.51-13.06,6.98,0,11.33,3.34,11.51,8.47l-8.2,1.49c-.21-2.06-1.49-3.28-3.71-3.28-2.98,0-5.31,2.73-5.31,5.77,0,2.4,1.79,3.83,4.55,3.83,2.58,0,4.86-1.43,5.65-3.77l7.93,1.09c-1.67,5.62-7.59,9.41-14.24,9.41-7.8,0-12.69-3.8-12.69-9.96Z"/>
  <path class="cls-1" d="M997.89,643.72c0-2.55,2.06-4.04,4.46-4.04s3.95,1.49,3.95,3.58c0,2.37-1.88,4.01-4.43,4.01-2.37,0-3.98-1.49-3.98-3.55Z"/>
  <path class="cls-1" d="M1018.39,625.11h10.45l4.92,21.86h-9.02l-.49-3.43h-7.44l-1.67,3.43h-8.78l12.02-21.86ZM1023.79,638.47l-1.15-7.47h-.06l-3.67,7.47h4.89Z"/>
  <g>
    <path class="cls-1" d="M232.68,498.15l2.84-1.03c.13,1.76.89,2.79,2.12,2.79,1.09,0,1.74-.78,1.74-2.17v-11.5h3.24v11.68c0,2.95-1.79,4.65-4.85,4.65s-4.8-1.63-5.09-4.42Z"/>
    <path class="cls-1" d="M245.26,492.74h6.95v2.17h-6.95v-2.17Z"/>
    <path class="cls-1" d="M254.25,497.54l3.13-.71c.07,1.9,1.09,3.08,2.57,3.08s2.43-1.14,2.43-2.97c0-1.94-.96-3.17-2.48-3.17-.71,0-1.52.4-1.92,1.03l-2.48-.54.54-8.02h8.29v2.55h-5.58l-.27,3.55c.51-.51,1.54-.83,2.5-.83,2.82,0,4.65,2.14,4.65,5.43s-2.26,5.61-5.7,5.61c-3.26,0-5.56-2.01-5.67-5Z"/>
    <path class="cls-1" d="M267.83,494.17c0-5.18,2.48-8.38,6.34-8.38s6.34,3.22,6.34,8.38-2.48,8.38-6.34,8.38-6.34-3.22-6.34-8.38ZM277.37,494.17c0-3.51-1.21-5.65-3.19-5.65s-3.19,2.14-3.19,5.65,1.23,5.63,3.19,5.63,3.19-2.12,3.19-5.63Z"/>
    <path class="cls-1" d="M289.33,498.79h-6.79v-1.85l5.83-10.7h4.02v10.14h1.72v2.41h-1.72v3.31h-3.06v-3.31ZM289.33,496.38v-6.88h-.04l-3.66,6.88h3.71Z"/>
    <path class="cls-1" d="M296.41,494.17c0-5.18,2.48-8.38,6.34-8.38s6.34,3.22,6.34,8.38-2.48,8.38-6.34,8.38-6.34-3.22-6.34-8.38ZM305.95,494.17c0-3.51-1.21-5.65-3.19-5.65s-3.19,2.14-3.19,5.65,1.23,5.63,3.19,5.63,3.19-2.12,3.19-5.63Z"/>
    <path class="cls-1" d="M311.42,497.77c0-2.1,1.18-3.64,3.17-4.13-1.52-.54-2.48-1.92-2.48-3.62,0-2.61,1.94-4.27,5.05-4.27s5.03,1.63,5.03,4.27c0,1.7-.96,3.06-2.52,3.62,2.01.47,3.22,2.01,3.22,4.13,0,2.95-2.17,4.74-5.72,4.74s-5.74-1.81-5.74-4.74ZM319.65,497.45c0-1.54-.98-2.55-2.48-2.55s-2.5,1.01-2.5,2.55.98,2.48,2.5,2.48,2.48-.96,2.48-2.48ZM319.11,490.48c0-1.32-.76-2.17-1.94-2.17s-1.99.85-1.99,2.17c0,1.38.78,2.28,1.99,2.28s1.94-.89,1.94-2.28Z"/>
    <path class="cls-1" d="M324.76,497.23l2.93-.4c.18,1.94,1.34,3.22,3.08,3.22,1.85,0,3.1-1.67,3.13-5.07-.69.87-1.7,1.54-3.66,1.54-2.73,0-4.71-2.14-4.71-5.18,0-3.31,2.21-5.54,5.7-5.54,3.69,0,5.76,2.48,5.76,7.33,0,5.52-1.56,9.41-6.3,9.41-3.44,0-5.54-2.12-5.92-5.29ZM333.79,491.36c0-1.76-.96-2.95-2.55-2.95-1.54.02-2.46,1.23-2.46,2.95s.92,2.88,2.46,2.88,2.55-1.18,2.55-2.88Z"/>
    <path class="cls-1" d="M338.75,497.54l3.13-.71c.07,1.9,1.09,3.08,2.57,3.08s2.43-1.14,2.43-2.97c0-1.94-.96-3.17-2.48-3.17-.71,0-1.52.4-1.92,1.03l-2.48-.54.54-8.02h8.29v2.55h-5.58l-.27,3.55c.51-.51,1.54-.83,2.5-.83,2.81,0,4.65,2.14,4.65,5.43s-2.26,5.61-5.7,5.61c-3.26,0-5.56-2.01-5.67-5Z"/>
    <path class="cls-1" d="M351.89,497.23l2.93-.4c.18,1.94,1.34,3.22,3.08,3.22,1.85,0,3.1-1.67,3.13-5.07-.69.87-1.7,1.54-3.66,1.54-2.73,0-4.71-2.14-4.71-5.18,0-3.31,2.21-5.54,5.7-5.54,3.69,0,5.76,2.48,5.76,7.33,0,5.52-1.56,9.41-6.3,9.41-3.44,0-5.54-2.12-5.92-5.29ZM360.92,491.36c0-1.76-.96-2.95-2.55-2.95-1.54.02-2.46,1.23-2.46,2.95s.92,2.88,2.46,2.88,2.55-1.18,2.55-2.88Z"/>
    <path class="cls-1" d="M366.73,492.74h6.95v2.17h-6.95v-2.17Z"/>
    <path class="cls-1" d="M375.58,499.49h3.33v-9.23h-.02c-.42.71-1.18,1.27-2.21,1.68l-1.01-2.7c1.74-.51,2.95-1.59,3.49-2.99h2.95v13.25h2.68v2.61h-9.2v-2.61Z"/>
  </g>
  <g>
    <path class="cls-1" d="M725.7,482.51c0,1.04-.32,1.89-.96,2.56-.64.66-1.47.99-2.5.99s-1.87-.33-2.51-1c-.64-.67-.97-1.52-.97-2.55s.32-1.88.97-2.56c.64-.67,1.48-1.01,2.51-1.01s1.86.33,2.5,1c.64.67.96,1.52.96,2.56ZM725.73,494.47c0,.49-.02,1.24-.07,2.23-.05,1-.07,1.74-.07,2.23,0,.64.02,1.59.06,2.87.04,1.27.06,2.23.06,2.87,0,.44-.11.66-.33.66-.34,0-.86-.02-1.54-.07-.69-.05-1.2-.07-1.54-.07s-.86.02-1.54.07c-.69.05-1.2.07-1.54.07-.23,0-.35-.22-.35-.66,0-.5,0-1.26-.02-2.26-.01-1.01-.02-1.76-.02-2.26,0-2.23.21-4.33.63-6.31.49-2,.97-4,1.45-6.01.1-.45.59-.68,1.47-.68.48,0,.83.02,1.05.07.32.07.52.25.61.53,1.15,3.73,1.73,5.96,1.73,6.71Z"/>
    <path class="cls-1" d="M739.62,505.04c-1.65,0-2.6-.02-2.83-.07s-.43-.23-.59-.53c-1.4-2.76-2.8-5.52-4.21-8.29-2.22-4.45-3.33-6.97-3.33-7.56,0-.97.03-2.42.1-4.37s.1-3.4.1-4.37c0-.45.12-.68.37-.68.74,0,1.85.03,3.35.09,1.5.06,2.62.09,3.37.09.31,0,.46.13.46.39,0,.99-.07,2.49-.21,4.48-.14,1.99-.21,3.48-.21,4.48,0,.76,1.24,3.48,3.73,8.15.67-1.21,1.44-2.7,2.3-4.47,1.15-2.38,1.73-3.84,1.73-4.38,0-.9-.01-2.24-.04-4.04s-.04-3.14-.04-4.04c0-.33.06-.52.17-.55h.59c.67,0,1.69-.03,3.06-.1s2.39-.1,3.06-.1c.37,0,.55.15.55.44,0,.94-.02,2.37-.05,4.27-.03,1.91-.05,3.34-.05,4.29,0,.76-1.21,3.56-3.62,8.38-.96,1.74-2.34,4.36-4.14,7.87-.12.27-.21.42-.25.45-.04.03-.2.06-.47.08-.62.05-1.59.07-2.91.07Z"/>
    <path class="cls-1" d="M761.28,491.38c0,1.45.04,3.62.11,6.53.07,2.91.11,5.08.11,6.53,0,.25-.06.4-.17.46-.02.01-.18.04-.48.07-.8.1-1.86.15-3.2.15-1.79,0-2.93-.05-3.42-.15-.36-.07-.53-.26-.53-.57,0,.2.06-.88.17-3.24.22-4.96.33-8.23.33-9.78,0-1.31-.04-3.28-.13-5.9-.09-2.62-.13-4.59-.13-5.9,0-.27.14-.4.42-.4.38,0,.95.02,1.72.06.77.04,1.34.06,1.72.06s.94-.02,1.68-.06c.74-.04,1.3-.06,1.68-.06.36,0,.53.13.53.4,0,1.31-.07,3.28-.21,5.9-.14,2.62-.21,4.59-.21,5.9Z"/>
    <path class="cls-1" d="M775.42,505.04c-1.65,0-2.6-.02-2.83-.07s-.43-.23-.59-.53c-1.4-2.76-2.8-5.52-4.21-8.29-2.22-4.45-3.33-6.97-3.33-7.56,0-.97.03-2.42.1-4.37s.1-3.4.1-4.37c0-.45.12-.68.37-.68.74,0,1.85.03,3.35.09,1.5.06,2.62.09,3.37.09.31,0,.46.13.46.39,0,.99-.07,2.49-.21,4.48-.14,1.99-.21,3.48-.21,4.48,0,.76,1.24,3.48,3.73,8.15.67-1.21,1.44-2.7,2.3-4.47,1.15-2.38,1.73-3.84,1.73-4.38,0-.9-.01-2.24-.04-4.04s-.04-3.14-.04-4.04c0-.33.06-.52.17-.55h.59c.67,0,1.69-.03,3.06-.1s2.39-.1,3.06-.1c.37,0,.55.15.55.44,0,.94-.02,2.37-.05,4.27-.03,1.91-.05,3.34-.05,4.29,0,.76-1.21,3.56-3.62,8.38-.96,1.74-2.34,4.36-4.14,7.87-.12.27-.21.42-.25.45-.04.03-.2.06-.47.08-.62.05-1.59.07-2.91.07Z"/>
    <path class="cls-1" d="M808.44,499.25c0,.53-.1,1.5-.31,2.91-.22,1.53-.42,2.45-.59,2.74-.15.23-.35.35-.61.35-.11,0-.29-.02-.55-.06-.9-.12-3.51-.18-7.83-.18-.94,0-2.35,0-4.21-.02-1.86-.01-3.26-.02-4.19-.02-.4,0-.61-.18-.61-.53,0-1.37.08-3.44.23-6.19.15-2.75.23-4.81.23-6.19s-.07-4-.22-7.81c-.04-.98-.1-2.45-.2-4.39l-.02-.26c-.02-.28.13-.42.46-.42.91,0,2.27.02,4.09.07,1.82.05,3.18.07,4.09.07s2.24-.02,4.05-.07c1.8-.05,3.15-.07,4.04-.07.64,0,1.01.24,1.1.72.06.28.16,1.14.29,2.57.13,1.43.19,2.3.19,2.6,0,.26-.12.39-.37.39-.07,0-.2,0-.39-.02-3.26-.27-6.19-.4-8.79-.4-.65,0-1.05.15-1.19.46-.06.15-.09.62-.09,1.42s.12,1.39.37,1.65c.21.23.61.35,1.19.35.12,0,.36,0,.72-.03.36-.02.65-.03.88-.03,1.54,0,3.11-.04,4.69-.13.13-.01.47-.04,1.01-.09.42-.05.75-.07.99-.07.29,0,.44.14.44.42,0-.26-.11.68-.33,2.81-.1.98-.15,1.96-.15,2.94,0,.25-.18.37-.53.37l-1.66-.18c-.7-.07-2.29-.11-4.78-.11h-1.95c-.5,0-.8.12-.88.37-.01.06-.02.44-.02,1.14,0,.93.06,1.53.18,1.8.21.47.99.74,2.35.83-.02,0,.87,0,2.68,0,.65,0,1.62-.06,2.9-.17,1.28-.12,2.24-.17,2.88-.17.27,0,.4.22.4.66Z"/>
    <path class="cls-1" d="M838.21,484.79c0,.25-.14.37-.4.37-.47,0-2.31-.09-5.53-.28-.07,3.1-.11,5.27-.11,6.49,0,1.45.06,3.62.17,6.53.12,2.91.17,5.08.17,6.53,0,.23-.06.38-.17.44-.04.02-.21.06-.52.09-.74.1-1.81.15-3.24.15-1.58,0-2.69-.05-3.33-.15-.34-.06-.51-.25-.51-.57,0-1.45.06-3.62.18-6.51s.18-5.06.18-6.51c0-.96-.05-3.09-.15-6.4-2.45.25-4.41.37-5.87.37-.2,0-.29-.06-.29-.18,0-.16.09-.63.26-1.42.2-.86.31-1.38.33-1.56.04-.58.08-1.15.13-1.73.09-.92.23-1.38.44-1.38.02,0,.11,0,.26.02,1.99.26,4.92.39,8.81.39,1.1,0,3.14-.12,6.1-.35,1.59-.12,2.4-.18,2.41-.18.25,0,.39.02.42.05.04.03.06.15.07.36,0,.33-.01.79-.04,1.38-.02.65-.04,1.11-.04,1.38,0,.31.04.76.12,1.35.08.59.12,1.04.12,1.33Z"/>
    <path class="cls-1" d="M862.13,495.94c0,3.13-.37,5.26-1.12,6.4-1.37,2.08-4.8,3.13-10.28,3.13-2.48,0-4.38-.19-5.72-.57-2.13-.61-3.52-1.78-4.16-3.51-.32-.85-.48-2.35-.48-4.52,0-.5.02-1.25.06-2.24.04-.99.06-1.73.06-2.23,0-1.42-.07-3.55-.2-6.4-.13-2.84-.2-4.97-.2-6.38,0-.29.13-.44.39-.44.75,0,1.88.03,3.39.09,1.51.06,2.64.09,3.39.09.31,0,.46.14.46.4,0,1.62-.05,4.04-.16,7.27-.1,3.23-.16,5.65-.16,7.27,0,1.92.2,3.22.61,3.9.54.92,1.67,1.38,3.38,1.38,2.51,0,3.77-1.22,3.77-3.66,0-1.78-.04-4.44-.13-8-.09-3.55-.13-6.22-.13-8,0-.38.15-.57.46-.57.72,0,1.81-.03,3.27-.09,1.46-.06,2.55-.09,3.27-.09.36,0,.53.15.53.44,0,1.41-.06,3.54-.17,6.38-.12,2.84-.17,4.98-.17,6.4,0,.39,0,.98.02,1.77.01.79.02,1.38.02,1.77Z"/>
    <path class="cls-1" d="M878.3,496.51c0,2.49-1.05,4.62-3.14,6.4-1.84,1.57-4.08,2.57-6.71,3-.1.01-.18.02-.24.02-.28,0-.91-.86-1.88-2.58-.97-1.72-1.45-2.77-1.45-3.15,0-.13.09-.22.28-.26,1.78-.4,2.95-.75,3.53-1.03,1.27-.64,1.91-1.58,1.91-2.83,0-.8-.42-1.69-1.25-2.67-1.45-1.67-2.23-2.59-2.35-2.78-.85-1.27-1.27-2.68-1.27-4.23,0-2.24,1.04-4.11,3.11-5.59,1.69-1.23,3.77-2.02,6.23-2.39.13-.01.24-.02.31-.02.18,0,.33.15.44.44.32.9,1.06,2.51,2.22,4.85.04.07.06.13.06.18,0,.21-.11.31-.33.31-.1,0-.26-.02-.5-.06-.23-.04-.41-.06-.53-.06-.88,0-1.65.2-2.32.61-.8.47-1.19,1.12-1.19,1.95,0,.75.44,1.67,1.32,2.76,1.56,1.96,2.37,2.99,2.45,3.09.87,1.35,1.31,2.69,1.31,4.03Z"/>
    <path class="cls-1" d="M903.3,496.51c0,2.49-1.05,4.62-3.14,6.4-1.84,1.57-4.08,2.57-6.71,3-.1.01-.18.02-.24.02-.28,0-.91-.86-1.88-2.58-.97-1.72-1.45-2.77-1.45-3.15,0-.13.09-.22.28-.26,1.78-.4,2.95-.75,3.53-1.03,1.27-.64,1.91-1.58,1.91-2.83,0-.8-.42-1.69-1.25-2.67-1.45-1.67-2.23-2.59-2.35-2.78-.85-1.27-1.27-2.68-1.27-4.23,0-2.24,1.04-4.11,3.11-5.59,1.69-1.23,3.77-2.02,6.23-2.39.13-.01.24-.02.31-.02.18,0,.33.15.44.44.32.9,1.06,2.51,2.22,4.85.04.07.06.13.06.18,0,.21-.11.31-.33.31-.1,0-.26-.02-.5-.06-.23-.04-.41-.06-.53-.06-.88,0-1.65.2-2.32.61-.8.47-1.19,1.12-1.19,1.95,0,.75.44,1.67,1.32,2.76,1.56,1.96,2.37,2.99,2.45,3.09.87,1.35,1.31,2.69,1.31,4.03Z"/>
    <path class="cls-1" d="M928.31,495.94c0,3.13-.37,5.26-1.12,6.4-1.37,2.08-4.8,3.13-10.28,3.13-2.48,0-4.38-.19-5.72-.57-2.13-.61-3.52-1.78-4.16-3.51-.32-.85-.48-2.35-.48-4.52,0-.5.02-1.25.06-2.24.04-.99.06-1.73.06-2.23,0-1.42-.07-3.55-.2-6.4-.13-2.84-.2-4.97-.2-6.38,0-.29.13-.44.39-.44.75,0,1.88.03,3.39.09,1.51.06,2.64.09,3.39.09.31,0,.46.14.46.4,0,1.62-.05,4.04-.16,7.27s-.16,5.65-.16,7.27c0,1.92.2,3.22.61,3.9.54.92,1.67,1.38,3.38,1.38,2.51,0,3.77-1.22,3.77-3.66,0-1.78-.04-4.44-.13-8-.09-3.55-.13-6.22-.13-8,0-.38.15-.57.46-.57.72,0,1.81-.03,3.27-.09,1.46-.06,2.55-.09,3.27-.09.36,0,.53.15.53.44,0,1.41-.06,3.54-.17,6.38-.12,2.84-.17,4.98-.17,6.4,0,.39,0,.98.02,1.77.01.79.02,1.38.02,1.77Z"/>
    <path class="cls-1" d="M950.76,499.25c0,.53-.1,1.5-.31,2.91-.22,1.53-.42,2.45-.59,2.74-.15.23-.35.35-.61.35-.11,0-.29-.02-.55-.06-.9-.12-3.51-.18-7.83-.18-.94,0-2.35,0-4.21-.02-1.86-.01-3.26-.02-4.19-.02-.4,0-.61-.18-.61-.53,0-1.37.08-3.44.23-6.19.15-2.75.23-4.81.23-6.19s-.07-4-.22-7.81c-.04-.98-.1-2.45-.2-4.39l-.02-.26c-.02-.28.13-.42.46-.42.91,0,2.27.02,4.09.07,1.82.05,3.18.07,4.09.07s2.24-.02,4.05-.07c1.8-.05,3.15-.07,4.04-.07.64,0,1.01.24,1.1.72.06.28.16,1.14.29,2.57.13,1.43.19,2.3.19,2.6,0,.26-.12.39-.37.39-.07,0-.2,0-.39-.02-3.26-.27-6.19-.4-8.79-.4-.65,0-1.05.15-1.19.46-.06.15-.09.62-.09,1.42s.12,1.39.37,1.65c.21.23.61.35,1.19.35.12,0,.36,0,.72-.03.36-.02.65-.03.88-.03,1.54,0,3.11-.04,4.69-.13.13-.01.47-.04,1.01-.09.42-.05.75-.07.99-.07.29,0,.44.14.44.42,0-.26-.11.68-.33,2.81-.1.98-.15,1.96-.15,2.94,0,.25-.18.37-.53.37l-1.66-.18c-.7-.07-2.29-.11-4.78-.11h-1.95c-.5,0-.8.12-.88.37-.01.06-.02.44-.02,1.14,0,.93.06,1.53.18,1.8.21.47.99.74,2.35.83-.02,0,.87,0,2.68,0,.65,0,1.62-.06,2.9-.17,1.28-.12,2.24-.17,2.88-.17.27,0,.4.22.4.66Z"/>
    <path class="cls-1" d="M977.81,479.74c0,1.4-.06,3.5-.17,6.3-.12,2.8-.17,4.91-.17,6.32v12.12c0,.33-.18.5-.53.5-.29,0-.74.01-1.33.04s-1.04.04-1.33.04c-.32,0-.8-.02-1.43-.07-.64-.05-1.12-.07-1.43-.07-.22,0-.48-.2-.79-.61-.88-1.19-2.87-3.82-5.96-7.91-.85-1.14-2.13-2.82-3.86-5.04-.05-.07-.14-.15-.28-.22-.1.09-.15.22-.15.4,0,1.42.04,3.56.12,6.4.08,2.84.12,4.98.12,6.4,0,.43-.17.64-.5.64h-6.36c-.36,0-.53-.19-.53-.57,0-1.32.06-3.32.19-5.99s.19-4.68.19-6.01c0-1.41-.06-3.52-.17-6.33-.12-2.81-.17-4.91-.17-6.31,0-.27.24-.4.72-.4.71,0,1.59-.05,2.63-.15.25-.02.73-.1,1.45-.24.61-.11,1.1-.17,1.45-.17.15,0,.37.21.68.62l6.86,9.4c.61.85,1.54,2.08,2.78,3.71.31.38.57.57.79.57.16,0,.24-.48.24-1.43,0-1.29-.07-3.22-.21-5.81-.14-2.59-.21-4.53-.21-5.83,0-.45.13-.68.39-.68.74,0,1.84-.03,3.33-.09,1.48-.06,2.59-.09,3.33-.09.23,0,.35.19.35.57ZM972.61,475.89c-1.54,1.74-3.17,2.61-4.87,2.61-.48,0-1.08-.25-1.81-.76-.73-.51-1.33-.76-1.79-.76-.43,0-.88.21-1.34.63-.47.42-.77.62-.92.62-.34-.12-.87-.53-1.58-1.21s-1.07-1.18-1.08-1.47c.13-.51.77-1.11,1.89-1.78,1.13-.67,1.99-1.01,2.57-1.01.51,0,1.19.23,2.02.68.83.45,1.5.68,2,.68.43,0,.93-.21,1.51-.64s.96-.64,1.14-.64.61.44,1.29,1.31c.67.87,1.01,1.41,1.01,1.62l-.04.15Z"/>
    <path class="cls-1" d="M1006.77,492.09c0,3.82-1.22,7.03-3.66,9.62-2.49,2.62-5.64,3.93-9.45,3.93s-6.93-1.32-9.43-3.97c-2.45-2.59-3.68-5.78-3.68-9.58s1.23-7.02,3.68-9.62c2.5-2.66,5.65-3.99,9.43-3.99s6.9,1.33,9.41,3.99c2.46,2.62,3.7,5.83,3.7,9.62ZM999.8,492.06c0-1.84-.56-3.4-1.67-4.69-1.16-1.35-2.65-2.02-4.47-2.02s-3.19.7-4.39,2.1c-1.16,1.35-1.75,2.9-1.75,4.65,0,1.88.54,3.44,1.64,4.69,1.15,1.31,2.65,1.97,4.5,1.97,1.73,0,3.2-.69,4.41-2.08,1.15-1.32,1.73-2.86,1.73-4.62Z"/>
    <path class="cls-1" d="M1022.05,496.51c0,2.49-1.05,4.62-3.14,6.4-1.84,1.57-4.08,2.57-6.71,3-.1.01-.18.02-.24.02-.28,0-.91-.86-1.88-2.58-.97-1.72-1.45-2.77-1.45-3.15,0-.13.09-.22.28-.26,1.78-.4,2.95-.75,3.53-1.03,1.27-.64,1.91-1.58,1.91-2.83,0-.8-.42-1.69-1.25-2.67-1.45-1.67-2.23-2.59-2.35-2.78-.85-1.27-1.27-2.68-1.27-4.23,0-2.24,1.04-4.11,3.11-5.59,1.69-1.23,3.77-2.02,6.23-2.39.13-.01.24-.02.31-.02.18,0,.33.15.44.44.32.9,1.06,2.51,2.22,4.85.04.07.06.13.06.18,0,.21-.11.31-.33.31-.1,0-.26-.02-.5-.06-.23-.04-.41-.06-.53-.06-.88,0-1.65.2-2.32.61-.8.47-1.19,1.12-1.19,1.95,0,.75.44,1.67,1.32,2.76,1.56,1.96,2.37,2.99,2.45,3.09.87,1.35,1.31,2.69,1.31,4.03Z"/>
    <path class="cls-1" d="M1032.33,483.62c0,2.23-.2,4.33-.61,6.29-.49,2.01-.97,4.01-1.45,6.01-.11.45-.6.68-1.47.68-.99,0-1.54-.2-1.65-.59-1.15-3.94-1.73-6.17-1.73-6.71,0-.5.02-1.25.07-2.24.05-.99.07-1.74.07-2.24,0-.55-.02-1.38-.06-2.48-.04-1.1-.06-1.93-.06-2.48,0-.45.11-.68.33-.68.34,0,.86.02,1.54.07.69.05,1.2.07,1.54.07s.86-.02,1.54-.07c.69-.05,1.2-.07,1.54-.07.25,0,.37,1.48.37,4.45ZM1032.33,501.84c0,1.03-.32,1.88-.96,2.56-.64.68-1.47,1.02-2.5,1.02s-1.88-.34-2.51-1.01c-.63-.67-.95-1.53-.95-2.57s.32-1.88.96-2.54c.64-.66,1.47-.99,2.5-.99s1.85.33,2.49.99c.64.66.97,1.51.97,2.54Z"/>
  </g>
</svg>