<?xml version="1.0" standalone="no"?>
<!DOCTYPE svg PUBLIC "-//W3C//DTD SVG 20010904//EN"
 "http://www.w3.org/TR/2001/REC-SVG-20010904/DTD/svg10.dtd">
<svg version="1.0" xmlns="http://www.w3.org/2000/svg"
 width="4501.000000pt" height="4500.000000pt" viewBox="0 0 4501.000000 4500.000000"
 preserveAspectRatio="xMidYMid meet">

<g transform="translate(0.000000,4500.000000) scale(0.100000,-0.100000)"
fill="#000000" stroke="none">
<path d="M18535 30100 c-664 -601 -1205 -1322 -1630 -2170 -924 -1847 -1139
-3961 -579 -5693 164 -506 416 -1012 691 -1389 637 -871 1500 -1387 2500
-1493 179 -19 538 -19 718 0 781 83 1561 406 2280 945 834 626 1549 1509 2060
2545 207 419 362 803 389 965 113 664 -190 1315 -742 1598 -126 65 -277 116
-411 138 -134 22 -374 15 -501 -15 -393 -91 -732 -330 -953 -671 -76 -117
-108 -186 -181 -378 -479 -1268 -1154 -2161 -1848 -2446 -48 -20 -136 -49
-195 -63 -97 -25 -125 -28 -278 -27 -151 0 -181 4 -268 27 -235 63 -413 171
-618 376 -192 193 -325 383 -470 671 -215 430 -378 966 -478 1575 -220 1338
-131 2832 261 4380 99 391 228 812 339 1109 27 71 48 130 46 132 -1 1 -60 -51
-132 -116z"/>
<path d="M24597 28610 c-669 -106 -1157 -624 -1217 -1292 -52 -576 270 -1140
795 -1393 200 -96 388 -138 615 -139 243 0 432 45 646 152 262 132 497 368
629 631 50 101 110 286 129 400 20 119 21 337 1 456 -94 581 -520 1031 -1104
1166 -98 23 -395 34 -494 19z"/>
<path d="M36605 19376 c-62 -29 -115 -72 -115 -95 0 -20 89 -111 109 -111 7 0
26 11 43 25 38 32 62 31 123 -5 86 -51 164 -38 250 41 l45 42 -17 27 c-22 34
-65 84 -79 92 -6 4 -30 -6 -55 -23 -24 -16 -52 -29 -62 -29 -10 0 -49 14 -87
30 -82 36 -91 36 -155 6z"/>
<path d="M32855 19146 c-138 -33 -264 -124 -305 -218 -19 -43 -22 -65 -18
-128 6 -90 24 -129 108 -230 72 -86 90 -118 90 -160 0 -72 -49 -117 -160 -145
-36 -9 -69 -21 -74 -26 -12 -11 64 -162 106 -213 l28 -34 62 14 c145 34 282
133 335 242 22 47 27 71 27 137 1 99 -15 137 -109 255 -38 47 -76 104 -87 127
-17 39 -17 45 -4 78 19 44 79 74 149 75 27 0 47 4 45 8 -1 4 -25 58 -53 120
-55 124 -50 120 -140 98z"/>
<path d="M33908 19144 c-78 -18 -170 -67 -225 -117 -64 -59 -93 -124 -93 -212
0 -89 27 -149 109 -245 71 -82 91 -118 91 -160 0 -72 -49 -117 -160 -145 -36
-9 -69 -21 -74 -26 -12 -11 62 -159 104 -211 l30 -36 62 14 c149 35 273 126
330 242 29 58 33 77 33 142 -1 94 -18 131 -120 260 -83 105 -104 154 -83 198
18 37 90 72 151 72 36 0 48 3 44 13 -111 253 -96 236 -199 211z"/>
<path d="M37890 19154 c-256 -38 -435 -199 -485 -439 -43 -205 8 -394 146
-540 112 -117 225 -165 394 -165 162 0 286 49 392 155 182 183 216 495 78 730
-43 75 -142 165 -220 204 -93 45 -218 67 -305 55z m167 -316 c90 -42 146 -140
146 -253 0 -210 -195 -347 -371 -259 -96 48 -142 132 -142 258 0 83 20 134 76
196 80 88 184 109 291 58z"/>
<path d="M38936 19144 c-135 -33 -277 -140 -304 -231 -7 -22 -12 -69 -12 -104
0 -83 29 -146 109 -239 71 -82 91 -118 91 -160 0 -72 -49 -117 -160 -145 -36
-9 -69 -21 -74 -26 -12 -11 62 -159 104 -211 l30 -36 62 14 c149 35 273 126
330 242 29 58 33 77 33 142 -1 94 -18 131 -120 260 -86 109 -104 152 -84 196
19 40 90 74 152 74 36 0 48 3 44 13 -112 253 -96 237 -201 211z"/>
<path d="M26382 19120 c-33 -15 -47 -29 -62 -62 -34 -75 -20 -141 39 -191 27
-23 42 -27 92 -27 53 0 63 3 95 33 85 78 53 227 -55 257 -49 13 -59 13 -109
-10z"/>
<path d="M31230 19128 c-107 -11 -481 -13 -577 -3 -83 8 -72 21 -92 -120 -6
-44 -14 -93 -18 -109 l-6 -29 130 6 130 5 7 -126 c3 -69 1 -256 -5 -415 -10
-244 -9 -291 2 -298 16 -10 262 -12 296 -3 l22 6 -6 420 -6 420 124 -3 124 -4
0 43 c-3 202 -5 222 -22 221 -10 -1 -56 -6 -103 -11z"/>
<path d="M36395 19129 c-22 -4 -66 -8 -97 -8 -31 -1 -59 -5 -62 -9 -3 -5 0
-127 6 -273 7 -193 7 -334 -1 -522 -9 -198 -9 -262 0 -273 16 -19 284 -21 296
-1 4 6 6 139 4 295 -2 155 -1 282 2 282 3 0 100 -126 216 -279 116 -153 218
-284 226 -291 17 -14 244 -25 261 -13 8 5 13 175 17 551 l7 543 -148 -7 c-81
-4 -151 -10 -156 -15 -5 -4 -4 -100 3 -231 15 -297 15 -338 -3 -338 -13 0 -71
76 -366 478 -88 120 -90 122 -127 121 -21 -1 -56 -5 -78 -10z"/>
<path d="M26736 19122 c-3 -5 -6 -103 -8 -218 l-3 -209 68 -145 c37 -80 111
-228 165 -330 l97 -185 115 -3 c63 -1 125 0 137 3 31 7 292 505 348 664 11 33
15 88 15 232 0 103 -4 190 -9 193 -4 3 -74 3 -155 -1 l-146 -6 0 -187 c0 -140
-4 -198 -15 -229 -21 -61 -146 -311 -155 -311 -10 0 -96 168 -135 260 l-28 65
13 193 c7 108 8 197 4 202 -13 11 -301 22 -308 12z"/>
<path d="M27795 19122 c-2 -2 -1 -153 2 -335 3 -184 1 -421 -5 -532 -8 -141
-8 -203 0 -212 12 -14 283 -19 305 -5 9 6 12 118 13 442 1 239 2 482 3 540 l2
105 -158 0 c-87 0 -160 -1 -162 -3z"/>
<path d="M28245 19018 c-4 -62 -5 -163 -3 -224 l3 -111 158 -319 c88 -176 164
-322 170 -326 16 -10 249 -10 263 0 17 10 246 450 298 572 l45 105 7 202 c6
169 5 203 -7 208 -8 3 -79 2 -159 -3 l-145 -7 0 -195 c0 -221 4 -205 -112
-433 l-56 -109 -39 74 c-22 40 -58 113 -81 163 l-40 89 10 201 c5 110 7 203 4
206 -3 4 -74 9 -158 13 l-151 6 -7 -112z"/>
<path d="M29304 19119 c-2 -4 1 -116 7 -250 9 -188 9 -311 -1 -532 -7 -158
-10 -291 -6 -295 12 -12 739 -18 753 -7 13 10 43 175 43 233 l0 34 -189 -7
c-276 -11 -291 -6 -291 100 0 60 1 63 28 70 15 4 99 3 187 -2 88 -4 167 -8
175 -8 16 0 23 35 35 181 l7 91 -201 -5 c-152 -4 -204 -2 -216 8 -21 17 -21
123 0 140 12 10 54 11 188 5 277 -13 252 -15 251 20 -3 85 -17 203 -24 215 -7
12 -73 14 -375 15 -202 0 -369 -3 -371 -6z"/>
<path d="M31444 19116 c-3 -9 -1 -137 5 -284 6 -147 10 -339 9 -427 -2 -188 7
-229 64 -291 52 -57 121 -82 259 -95 207 -21 426 17 508 87 60 52 74 97 78
254 2 74 8 274 14 444 6 181 7 312 1 318 -5 5 -75 6 -162 2 l-153 -7 8 -367
c8 -401 6 -414 -49 -458 -55 -43 -190 -36 -234 11 -39 42 -44 101 -36 470 l7
347 -74 0 c-41 0 -111 3 -156 7 -72 5 -83 4 -89 -11z"/>
<path d="M34245 19120 c-3 -6 -3 -45 0 -88 4 -42 10 -246 14 -452 6 -359 8
-377 29 -417 27 -52 82 -98 141 -118 77 -26 245 -38 373 -26 151 13 238 41
294 93 73 67 75 80 85 572 5 238 6 433 1 438 -5 5 -76 5 -158 1 l-149 -8 4
-370 c4 -413 3 -421 -62 -460 -42 -26 -148 -27 -194 -2 -68 36 -75 92 -62 501
5 176 6 323 2 326 -14 13 -311 22 -318 10z"/>
<path d="M35334 19118 c-3 -4 0 -128 6 -275 8 -193 8 -322 1 -458 -15 -266
-14 -342 3 -348 8 -3 178 -7 377 -8 311 -1 363 1 370 13 10 18 39 190 39 231
l0 28 -202 -7 c-173 -6 -209 -4 -240 9 l-38 16 0 69 c0 67 1 70 27 77 15 3 99
3 187 -2 89 -4 168 -8 176 -8 12 0 18 25 27 115 6 63 12 124 12 136 1 21 -1
21 -199 16 -152 -4 -203 -2 -215 8 -10 9 -15 31 -15 76 0 60 1 64 26 70 28 7
305 -2 381 -13 l43 -6 0 59 c-1 70 -16 193 -25 202 -9 9 -736 9 -741 0z"/>
<path d="M39299 19125 c-1 0 -3 -99 -4 -220 l-3 -220 35 -135 c20 -75 42 -141
51 -147 9 -7 32 -13 52 -13 20 0 43 6 52 13 9 7 31 76 54 172 37 156 38 165
38 355 l1 194 -138 1 c-75 0 -138 0 -138 0z"/>
<path d="M8939 18837 c-25 -7 -59 -23 -76 -35 -82 -58 -84 -203 -4 -263 l31
-23 -38 -20 c-81 -45 -107 -178 -51 -260 59 -88 227 -119 340 -63 66 32 97 76
106 145 9 76 -17 136 -73 171 l-43 28 30 22 c63 47 77 163 28 232 -42 59 -161
91 -250 66z m130 -133 c31 -39 28 -89 -8 -125 -32 -32 -47 -35 -84 -18 -48 22
-62 97 -26 143 16 20 29 26 59 26 30 0 43 -6 59 -26z m12 -273 c21 -22 29 -39
29 -66 0 -80 -52 -121 -130 -104 -45 10 -70 44 -70 97 0 61 41 102 100 102 33
0 48 -6 71 -29z"/>
<path d="M7115 18821 c-110 -51 -176 -205 -160 -371 21 -221 144 -337 319
-300 105 22 178 110 201 245 33 191 -28 366 -148 424 -56 27 -156 28 -212 2z
m168 -119 c47 -42 62 -91 62 -207 0 -95 -3 -116 -24 -158 -49 -100 -152 -102
-202 -4 -27 53 -37 191 -19 266 13 55 49 107 84 122 28 11 75 3 99 -19z"/>
<path d="M8305 18821 c-22 -10 -55 -35 -74 -56 -123 -140 -115 -432 14 -558
38 -37 112 -67 165 -67 53 0 127 30 165 67 129 125 136 419 14 558 -46 52 -99
75 -179 75 -42 0 -79 -7 -105 -19z m182 -135 c83 -89 65 -364 -28 -411 -93
-49 -168 31 -177 188 -6 97 11 177 45 218 50 59 108 61 160 5z"/>
<path d="M9485 18821 c-49 -22 -99 -77 -115 -126 -7 -21 -10 -67 -8 -105 3
-57 9 -77 33 -111 17 -23 48 -51 69 -62 54 -28 139 -28 194 1 l42 22 0 -37 c0
-50 -36 -120 -71 -138 -72 -38 -152 3 -173 89 -7 28 -7 29 -64 22 -31 -4 -58
-9 -61 -12 -3 -2 1 -26 8 -52 32 -122 158 -191 298 -162 44 10 64 21 103 58
63 61 90 144 95 287 6 173 -36 279 -128 324 -56 27 -164 29 -222 2z m164 -106
c62 -32 69 -146 12 -197 -71 -63 -161 -12 -161 92 0 98 69 147 149 105z"/>
<path d="M10615 18821 c-80 -37 -125 -111 -125 -204 0 -126 61 -204 174 -221
44 -7 110 8 147 34 l25 19 -7 -54 c-4 -30 -17 -70 -28 -88 -53 -87 -168 -72
-206 27 -19 49 -25 52 -97 40 -46 -8 -49 -26 -14 -99 29 -64 72 -100 142 -121
100 -29 198 -3 260 70 55 64 79 155 78 301 -1 170 -35 250 -127 294 -57 28
-165 29 -222 2z m164 -105 c56 -30 71 -131 25 -185 -47 -56 -137 -48 -162 16
-47 120 35 221 137 169z"/>
<path d="M5770 18581 c0 -301 -5 -320 -77 -321 -36 0 -68 32 -78 80 -4 17 -8
30 -10 30 -3 0 -29 -9 -60 -21 -62 -23 -65 -31 -36 -94 64 -142 296 -155 372
-21 24 40 24 45 24 316 l0 275 -67 3 -68 3 0 -250z"/>
<path d="M6466 18822 c-8 -13 -28 -312 -23 -327 3 -7 26 -16 50 -19 36 -6 52
-3 78 14 19 11 42 20 52 20 32 0 74 -28 87 -60 26 -62 5 -168 -35 -184 -9 -3
-34 -6 -55 -6 -30 0 -44 6 -63 30 -14 16 -28 44 -32 61 -7 29 -9 31 -39 24
-17 -3 -46 -9 -65 -12 -32 -6 -33 -7 -28 -45 7 -50 46 -109 90 -137 118 -73
299 -34 352 75 23 47 31 154 16 209 -28 103 -130 161 -232 132 l-50 -15 2 59
c1 33 6 62 12 66 5 3 58 5 118 4 l109 -2 0 61 0 60 -169 0 c-94 0 -172 -4
-175 -8z"/>
<path d="M7686 18598 c-99 -179 -126 -238 -124 -262 l3 -31 143 -3 142 -3 0
-69 0 -70 65 0 65 0 0 70 0 70 35 0 35 0 0 50 0 50 -35 0 -35 0 0 215 0 215
-84 0 -84 0 -126 -232z m164 -58 l0 -140 -76 0 -75 0 73 140 c40 77 74 140 76
140 1 0 2 -63 2 -140z"/>
<path d="M9987 18823 c-3 -5 -7 -51 -11 -103 -4 -52 -9 -125 -12 -162 l-6 -66
38 -11 c52 -14 53 -14 100 11 67 35 123 8 144 -72 14 -52 4 -102 -26 -135 -18
-19 -33 -25 -68 -25 -37 0 -48 5 -69 30 -14 16 -28 44 -32 61 -7 29 -9 31 -39
24 -17 -3 -46 -9 -65 -12 -32 -6 -33 -7 -28 -45 16 -120 154 -200 290 -169
116 26 180 107 180 229 -1 118 -48 191 -140 218 -48 14 -59 14 -104 0 l-52
-15 7 61 c3 34 8 63 10 66 3 2 55 3 115 3 l111 -2 0 61 0 60 -169 0 c-94 0
-172 -3 -174 -7z"/>
<path d="M11574 18793 c-35 -47 -50 -60 -91 -79 -18 -8 -33 -17 -33 -20 0 -25
37 -104 49 -104 8 0 29 11 48 26 l33 25 0 -185 0 -186 -70 0 -70 0 0 -55 0
-55 195 0 195 0 0 55 0 55 -55 0 -55 0 -2 278 -3 277 -56 3 c-54 3 -57 2 -85
-35z"/>
<path d="M26408 18778 c-22 -18 -86 -288 -98 -413 -11 -114 -13 -253 -4 -307
l6 -37 139 0 c77 0 139 3 140 7 0 4 1 120 1 257 l0 250 -35 119 c-19 65 -41
123 -49 127 -20 13 -82 11 -100 -3z"/>
<path d="M6010 18505 l0 -45 150 0 151 0 -2 45 -3 45 -148 0 -148 0 0 -45z"/>
<path d="M11073 18505 l-1 -46 147 3 146 3 2 43 2 42 -148 0 -147 0 -1 -45z"/>
<path d="M39373 18301 c-74 -34 -101 -111 -68 -197 22 -58 62 -84 130 -84 62
0 93 15 123 60 20 30 23 44 20 97 -3 53 -9 68 -33 93 -27 28 -78 50 -115 50
-8 0 -34 -9 -57 -19z"/>
<path d="M11320 17613 c-227 -21 -381 -55 -550 -122 -493 -193 -860 -631
-1004 -1199 -51 -199 -60 -281 -60 -532 0 -251 9 -333 60 -532 125 -494 418
-890 826 -1116 158 -88 413 -168 613 -193 151 -19 594 -15 729 5 538 84 952
364 1215 825 169 296 255 637 255 1011 0 288 -46 533 -145 779 -253 632 -759
1008 -1439 1070 -105 10 -416 13 -500 4z m540 -378 c189 -30 371 -102 527
-206 107 -72 266 -233 342 -348 403 -608 343 -1503 -136 -2011 -182 -193 -416
-321 -691 -377 -126 -26 -578 -26 -704 0 -275 56 -509 184 -691 377 -476 506
-537 1408 -135 2012 77 115 236 277 342 348 152 101 334 173 521 204 116 20
503 20 625 1z"/>
<path d="M13366 17598 c-13 -18 -16 -57 -16 -214 0 -169 2 -193 17 -198 55
-22 249 -28 681 -21 l462 6 0 -1540 0 -1540 23 -13 c25 -15 423 -16 438 -1 37
37 51 607 39 1623 -5 443 -12 911 -15 1041 -3 130 -3 280 1 333 l7 96 511 -3
c477 -2 603 2 634 22 9 5 13 57 15 192 2 162 0 188 -16 212 l-17 27 -1375 0
-1374 0 -15 -22z"/>
<path d="M5632 17603 c-130 -4 -133 -4 -142 -28 -35 -93 -43 -824 -27 -2590
l9 -910 31 -14 c42 -18 418 -11 442 9 13 11 15 167 17 1359 l3 1346 92 -215
c50 -118 207 -494 348 -834 410 -988 631 -1498 709 -1630 l26 -44 227 2 c126
0 233 4 238 8 6 3 269 614 585 1357 316 743 579 1351 584 1351 5 0 6 -164 3
-402 -24 -1469 -19 -2170 16 -2275 l12 -36 185 -5 c119 -3 200 0 226 7 l41 11
9 967 c16 1708 9 2404 -24 2528 l-8 30 -309 0 -309 0 -46 -90 c-102 -201 -337
-756 -785 -1855 -321 -788 -406 -990 -415 -990 -4 0 -26 44 -49 98 -23 53
-299 711 -614 1460 -383 912 -579 1367 -592 1374 -20 12 -265 17 -483 11z"/>
<path d="M18120 17594 c-14 -2 -59 -9 -100 -15 -262 -37 -574 -162 -785 -314
-525 -377 -756 -955 -659 -1645 42 -296 145 -554 280 -699 94 -102 214 -143
269 -91 36 34 33 79 -9 149 -99 164 -193 392 -241 586 -129 514 -22 964 313
1317 299 314 676 481 1089 482 83 1 149 4 146 9 -2 4 1 7 6 7 6 0 11 5 11 11
0 5 -3 8 -7 6 -5 -3 -8 34 -8 81 0 65 4 90 15 100 8 8 9 11 3 7 -7 -3 -13 -1
-13 4 0 10 -247 14 -310 5z"/>
<path d="M18454 17485 c0 -49 1 -71 3 -48 2 23 2 64 0 90 -2 26 -3 8 -3 -42z"/>
<path d="M16392 15385 c-63 -20 -171 -87 -281 -175 -192 -154 -487 -483 -555
-618 -46 -92 -54 -226 -20 -309 119 -284 759 -246 1743 104 274 97 771 300
796 324 13 13 6 200 -8 218 -9 12 -9 13 1 7 8 -5 12 0 12 14 0 13 -4 19 -11
14 -6 -3 -3 5 6 20 9 14 20 24 24 21 4 -2 8 2 8 10 0 8 -5 11 -11 7 -6 -3 -15
-7 -21 -9 -5 -1 -82 -31 -170 -68 -486 -201 -1305 -482 -1560 -535 -303 -63
-502 -65 -542 -4 -20 32 -11 56 61 154 89 122 218 245 456 435 118 95 224 182
234 194 29 32 33 117 7 159 -33 52 -85 63 -169 37z"/>
<path d="M19173 14355 c-37 -26 -176 -92 -243 -115 -340 -116 -746 -104 -1182
36 -186 60 -203 62 -233 34 -13 -12 -26 -33 -30 -47 -11 -46 12 -77 93 -126
356 -214 747 -280 1165 -196 211 42 477 149 477 191 0 5 -4 7 -8 4 -4 -2 -8 4
-8 14 0 10 3 17 7 15 3 -3 6 41 5 97 -1 59 -5 103 -11 105 -6 2 -20 -4 -32
-12z"/>
<path d="M31870 13063 c-270 -36 -476 -190 -542 -408 -30 -96 -29 -219 1 -297
42 -108 155 -200 296 -239 78 -22 343 -19 420 5 232 71 387 228 431 436 50
237 -75 427 -318 485 -67 16 -230 26 -288 18z m132 -285 c150 -45 155 -260 8
-359 -123 -83 -299 -43 -331 74 -22 82 26 205 98 252 63 42 153 55 225 33z"/>
<path d="M33995 13060 c-296 -47 -503 -237 -535 -493 -29 -234 96 -397 348
-453 94 -21 309 -15 392 11 241 75 401 246 432 462 33 229 -83 396 -319 457
-76 20 -240 28 -318 16z m204 -303 c86 -57 94 -185 19 -288 -75 -101 -263
-126 -344 -45 -104 104 -31 307 127 355 58 18 154 7 198 -22z"/>
<path d="M36134 13040 c-190 -50 -295 -163 -294 -319 1 -151 116 -226 400
-261 105 -14 129 -21 153 -45 13 -12 14 -21 7 -35 -37 -68 -277 -44 -380 39
l-37 30 -109 -66 c-60 -36 -111 -67 -113 -68 -8 -8 41 -74 72 -98 49 -37 126
-74 198 -93 90 -25 319 -26 409 -1 140 38 244 109 292 199 17 33 22 60 23 118
0 170 -90 234 -388 279 -116 17 -177 38 -177 60 0 4 9 16 21 27 18 16 37 19
123 19 104 0 116 -3 211 -64 18 -11 32 -6 123 51 56 34 102 66 102 70 0 5 -17
26 -37 49 -44 48 -129 94 -215 114 -92 21 -294 19 -384 -5z"/>
<path d="M37512 13045 c-211 -46 -380 -200 -437 -399 -25 -86 -18 -223 16
-296 49 -106 157 -187 300 -226 88 -24 281 -24 369 -1 169 45 319 157 385 290
20 39 32 74 28 77 -5 4 -66 15 -138 24 -71 9 -142 19 -156 22 -22 4 -30 -2
-55 -43 -44 -70 -116 -107 -209 -107 -134 0 -208 79 -186 197 20 110 100 188
200 195 82 6 124 -16 153 -79 13 -27 27 -49 33 -49 11 0 267 47 303 55 28 7
29 36 1 112 -43 112 -154 196 -304 228 -86 18 -219 18 -303 0z"/>
<path d="M29919 13038 c0 -2 -33 -205 -73 -453 l-72 -450 165 -3 c90 -1 165
-1 166 0 2 2 20 114 41 251 21 136 41 247 44 247 3 0 34 -113 69 -250 l64
-250 143 0 142 0 142 255 c79 141 144 254 146 253 1 -2 -15 -111 -36 -243 -22
-132 -40 -246 -40 -252 0 -10 39 -13 164 -13 l164 0 6 28 c11 48 136 846 136
865 0 16 -18 17 -230 17 l-230 0 -23 -37 c-13 -21 -81 -143 -153 -270 -71
-128 -132 -233 -135 -233 -4 0 -23 71 -44 158 -20 86 -49 207 -64 267 l-27
110 -232 3 c-128 1 -232 1 -233 0z"/>
<path d="M32590 13033 c0 -5 -9 -62 -20 -128 -11 -66 -20 -126 -20 -132 0 -10
33 -13 130 -13 122 0 130 -1 130 -20 0 -10 -20 -147 -45 -303 -25 -157 -45
-290 -45 -296 0 -8 54 -11 180 -11 178 0 180 0 185 23 5 21 95 593 95 602 0 3
61 5 135 5 131 0 135 1 140 23 9 41 35 212 35 235 l0 22 -450 0 c-247 0 -450
-3 -450 -7z"/>
<path d="M34790 13032 c0 -5 -31 -207 -70 -451 -38 -243 -70 -444 -70 -447 0
-2 82 -3 182 -2 l183 3 17 110 c30 192 23 175 69 175 53 0 101 -21 116 -51 7
-13 19 -49 28 -79 48 -173 176 -226 388 -159 92 28 89 24 76 112 -10 69 -13
76 -30 67 -49 -27 -78 -6 -109 77 -12 32 -30 67 -40 78 -19 20 -19 21 32 39
69 24 149 104 171 170 9 27 17 77 17 110 -1 137 -84 218 -250 245 -76 13 -710
15 -710 3z m569 -246 c14 -12 21 -31 21 -53 0 -81 -40 -103 -183 -103 l-104 0
13 83 c8 45 14 86 14 90 0 5 49 7 109 5 90 -2 113 -6 130 -22z"/>
<path d="M38957 12998 c-14 -24 -125 -225 -247 -448 -122 -223 -224 -408 -227
-412 -2 -5 78 -8 179 -8 l184 0 34 70 34 70 152 0 c172 0 157 8 169 -87 l7
-53 187 0 188 0 -94 418 c-52 229 -97 433 -101 452 l-8 35 -216 3 -217 2 -24
-42z m238 -469 l7 -49 -101 0 -101 0 31 63 c18 34 52 105 77 157 l45 95 18
-108 c9 -59 20 -130 24 -158z"/>
<path d="M38224 12411 c-105 -48 -134 -187 -53 -255 85 -72 237 -47 285 46 24
47 15 140 -17 174 -50 55 -139 69 -215 35z"/>
</g>
</svg>
